<svg xmlns="http://www.w3.org/2000/svg" viewBox="0 0 1379.34 1348.36" width="36px" fill="#000"><defs><style>@media (prefers-color-scheme:dark){:root{filter:invert(100%)}}</style></defs><path class="cls-1" d="M1210.72,1090.73c-13.64-58.21-48.11-110.89-85.89-149-19.26-19.07-39.33-34.49-60.17-45.17S1022.23,880,1000,880c-44.52,0-86.3,23.58-124.8,61.72a355.07,355.07,0,0,0-52,67c-15,25.21-27.1,53-33.94,82.06-13.62,58.2-.94,110.89,37.55,149,37.76,38.13,101.35,61.72,173.2,61.72s135.44-23.59,173.26-61.72c28.46-28.24,42.84-64.41,42.84-104.92A193.34,193.34,0,0,0,1210.72,1090.73Zm-158.23-51.18c-11.77,11.85-31.58,19.2-53.94,19.2s-42.14-7.35-53.91-19.2c-12-11.9-16-28.29-11.68-46.39a92.92,92.92,0,0,1,10.54-25.55,110.1,110.1,0,0,1,7.46-10.9c17.23-11.12,33.63-16.73,49-16.73,12,0,24.25,3.26,37.37,10q3,1.53,6,3.3c9.3,11,17.31,24.9,20.81,39.9a60.83,60.83,0,0,1,1.64,13.72C1065.79,1019.48,1061.37,1030.75,1052.49,1039.55Z" transform="translate(-310.33 -325.82)"/><path class="cls-1" d="M1672.56,986.27c-14.56-62-37.23-124.4-67.38-185.57a1014.31,1014.31,0,0,0-58.07-102.21,181.43,181.43,0,0,0,28.31-24.55,163.76,163.76,0,0,0,32.46-50.59,160.11,160.11,0,0,0,11.62-60.27,177.77,177.77,0,0,0-6.37-46.56v-.06l0-.06c-13.42-49.06-40-95.29-74.91-130.14-39-39-84.92-60.44-129.36-60.44s-90.4,21.46-129.4,60.44a269.69,269.69,0,0,0-18.24,20.2q-22.68-14.15-45.37-25.77c-71.09-36.41-143.71-54.87-215.85-54.87-54.75,0-110,10.67-164.32,31.71a581.4,581.4,0,0,0-96.87,49,272.33,272.33,0,0,0-18.25-20.22c-38.92-39-84.87-60.45-129.38-60.45s-90.37,21.47-129.35,60.45c-34.9,34.88-61.51,81.11-74.91,130.16v.09a177.9,177.9,0,0,0-6.39,46.56,160,160,0,0,0,11.63,60.28A163.76,163.76,0,0,0,424.57,674a182.17,182.17,0,0,0,28.3,24.52q-10.19,15.74-19.71,31.7c-49.84,83.48-85.41,169.65-105.72,256.11-45,191.46-.51,365.62,125.31,490.4,30.7,31,66.71,59.15,107,83.79,39.57,24.19,83.39,45,130.22,61.89a860.1,860.1,0,0,0,148.26,38.51,989.25,989.25,0,0,0,323.46,0A860.45,860.45,0,0,0,1310,1622.36c46.84-16.88,90.65-37.7,130.23-61.89,40.32-24.64,76.33-52.83,107-83.78,93.17-92.45,142.42-212.84,142.42-348.18C1689.67,1082.43,1683.91,1034.58,1672.56,986.27Zm-167.75,448c-110.12,111.16-295.36,179.91-504.84,179.91s-394.66-68.75-504.78-179.91C383,1323.15,346,1169.61,385.85,1000c19.92-84.79,54.95-165.58,98.83-239.08a998.59,998.59,0,0,1,58.72-87.44c-62.76-14.28-102.92-56.94-102.92-110.4a117.77,117.77,0,0,1,4.29-30.84c11-40.4,32.94-77.05,59.45-103.54s57.57-42.88,86.93-42.88,60.5,16.38,87,42.88A231.94,231.94,0,0,1,722,490.91c87.72-66.37,180.64-105.09,278-105.09,64.88,0,127.83,17.2,188.49,48.26a613.75,613.75,0,0,1,89.59,56.79,230.89,230.89,0,0,1,43.79-62.17c26.51-26.5,57.58-42.88,87-42.88s60.45,16.38,87,42.88,48.39,63.14,59.45,103.54a117.72,117.72,0,0,1,4.27,30.84c0,53.46-40.14,96.12-102.9,110.4C1527.43,768.05,1586,880,1614.15,1000c10.36,44.07,15.52,87,15.52,128.51C1629.67,1246.5,1587.79,1352,1504.81,1434.27Z" transform="translate(-310.33 -325.82)"/><path class="cls-1" d="M802.68,850.42a28.51,28.51,0,1,0,28.48,28.52A28.52,28.52,0,0,0,802.68,850.42Zm393.72,0a28.51,28.51,0,1,0,28.51,28.52A28.48,28.48,0,0,0,1196.4,850.42Zm0,0a28.51,28.51,0,1,0,28.51,28.52A28.48,28.48,0,0,0,1196.4,850.42Zm-393.72,0a28.51,28.51,0,1,0,28.48,28.52A28.52,28.52,0,0,0,802.68,850.42Zm0,0a28.51,28.51,0,1,0,28.48,28.52A28.52,28.52,0,0,0,802.68,850.42Zm393.72,0a28.51,28.51,0,1,0,28.51,28.52A28.48,28.48,0,0,0,1196.4,850.42Zm0,0a28.51,28.51,0,1,0,28.51,28.52A28.48,28.48,0,0,0,1196.4,850.42Zm-393.72,0a28.51,28.51,0,1,0,28.48,28.52A28.52,28.52,0,0,0,802.68,850.42Zm393.72,0a28.51,28.51,0,1,0,28.51,28.52A28.48,28.48,0,0,0,1196.4,850.42Zm-393.72,0a28.51,28.51,0,1,0,28.48,28.52A28.52,28.52,0,0,0,802.68,850.42Zm0,0a28.51,28.51,0,1,0,28.48,28.52A28.52,28.52,0,0,0,802.68,850.42Zm393.72,0a28.51,28.51,0,1,0,28.51,28.52A28.48,28.48,0,0,0,1196.4,850.42Zm0,0a28.51,28.51,0,1,0,28.51,28.52A28.48,28.48,0,0,0,1196.4,850.42Zm-393.72,0a28.51,28.51,0,1,0,28.48,28.52A28.52,28.52,0,0,0,802.68,850.42Zm0,0a28.51,28.51,0,1,0,28.48,28.52A28.52,28.52,0,0,0,802.68,850.42Zm393.72,0a28.51,28.51,0,1,0,28.51,28.52A28.48,28.48,0,0,0,1196.4,850.42Zm0,0a28.51,28.51,0,1,0,28.51,28.52A28.48,28.48,0,0,0,1196.4,850.42Zm-393.72,0a28.51,28.51,0,1,0,28.48,28.52A28.52,28.52,0,0,0,802.68,850.42Zm0,0a28.51,28.51,0,1,0,28.48,28.52A28.52,28.52,0,0,0,802.68,850.42Zm393.72,0a28.51,28.51,0,1,0,28.51,28.52A28.48,28.48,0,0,0,1196.4,850.42Zm0,0a28.51,28.51,0,1,0,28.51,28.52A28.48,28.48,0,0,0,1196.4,850.42Zm-393.72,0a28.51,28.51,0,1,0,28.48,28.52A28.52,28.52,0,0,0,802.68,850.42Z" transform="translate(-310.33 -325.82)"/></svg>