<?xml version="1.0" standalone="no"?>
<!DOCTYPE svg PUBLIC "-//W3C//DTD SVG 20010904//EN"
 "http://www.w3.org/TR/2001/REC-SVG-20010904/DTD/svg10.dtd">
<svg version="1.0" xmlns="http://www.w3.org/2000/svg"
 width="1380.000000pt" height="1380.000000pt" viewBox="0 0 1380.000000 1380.000000"
 preserveAspectRatio="xMidYMid meet">
<metadata>
Created by potrace 1.14, written by Peter Selinger 2001-2017
</metadata>
<g transform="translate(0.000000,1380.000000) scale(0.100000,-0.100000)"
fill="#000000" stroke="none">
<path d="M2757 13644 c-1 -1 -38 -5 -82 -8 -163 -14 -358 -69 -540 -154 -55
-25 -107 -51 -115 -57 -8 -6 -37 -24 -65 -40 -204 -115 -506 -389 -665 -605
-14 -18 -34 -45 -45 -59 -39 -49 -122 -176 -179 -273 -50 -86 -176 -339 -176
-354 0 -3 -7 -20 -15 -37 -42 -92 -141 -426 -149 -509 -2 -18 -7 -60 -11 -93
-20 -157 -9 -385 25 -530 48 -205 143 -421 260 -587 89 -127 330 -368 401
-402 10 -5 19 -13 19 -19 0 -5 -49 -89 -109 -186 -59 -97 -147 -246 -195 -331
-48 -85 -91 -162 -96 -170 -18 -29 -266 -526 -299 -600 -19 -41 -54 -122 -78
-180 -25 -58 -53 -123 -63 -145 -35 -78 -169 -443 -219 -598 -114 -352 -225
-790 -267 -1057 -3 -19 -7 -46 -10 -60 -3 -14 -7 -38 -9 -55 -11 -77 -25 -174
-29 -215 -3 -25 -8 -63 -11 -85 -21 -182 -29 -348 -29 -625 0 -264 8 -428 29
-585 2 -16 6 -57 10 -90 38 -350 185 -916 314 -1210 5 -11 30 -69 56 -130 410
-951 1204 -1800 2240 -2395 470 -271 1080 -524 1655 -689 41 -12 89 -26 105
-31 33 -10 335 -86 375 -94 14 -3 34 -7 45 -10 87 -20 308 -63 420 -81 50 -8
101 -17 115 -19 31 -6 81 -13 145 -22 28 -3 58 -8 69 -10 10 -2 44 -6 75 -9
31 -4 67 -8 81 -11 14 -2 52 -6 85 -9 33 -3 81 -8 107 -11 25 -3 70 -7 100 -9
29 -2 82 -7 118 -10 151 -14 478 -27 730 -27 185 -1 565 10 621 17 15 1 75 6
135 10 60 3 125 8 144 10 19 2 67 6 105 10 39 4 80 8 93 10 13 2 53 7 90 10
37 4 74 8 82 10 8 2 42 7 75 10 33 4 67 8 75 10 8 2 35 7 60 10 69 9 317 53
455 80 17 3 82 17 145 31 63 14 122 27 130 29 8 2 35 8 60 15 25 7 53 14 62
15 41 8 226 60 395 111 281 84 576 191 781 281 29 12 80 35 115 49 95 40 448
215 572 284 389 218 772 489 1080 764 109 98 327 315 412 411 34 39 72 81 84
95 12 14 63 77 113 140 254 319 447 637 629 1040 96 212 238 649 281 863 4 15
8 39 11 55 3 15 8 34 10 42 3 8 7 33 11 55 3 22 7 42 9 45 2 3 7 33 10 65 4
33 9 63 11 66 1 3 6 28 9 55 4 27 8 59 10 71 2 12 7 57 10 100 4 43 9 86 11
96 25 134 24 805 -1 1002 -2 17 -7 63 -10 104 -3 41 -8 77 -9 80 -2 3 -7 40
-10 80 -4 41 -9 77 -11 80 -2 4 -6 29 -9 57 -3 28 -8 57 -10 65 -3 8 -7 32
-10 54 -2 22 -16 99 -31 170 -15 72 -28 139 -31 151 -2 11 -21 90 -43 175
-124 491 -245 843 -459 1344 -91 211 -283 604 -376 769 -31 54 -56 100 -56
102 0 6 -175 302 -247 418 -41 65 -77 124 -79 131 -3 8 17 30 49 54 31 22 97
80 147 128 289 275 445 582 507 993 14 98 6 352 -16 477 -60 344 -241 771
-459 1083 -46 66 -123 171 -132 180 -3 3 -34 39 -70 80 -84 97 -188 201 -270
270 -36 30 -67 57 -70 60 -14 15 -155 112 -220 152 -177 111 -429 209 -605
238 -466 75 -902 -52 -1335 -389 -86 -66 -296 -269 -363 -350 -27 -33 -40 -41
-49 -34 -7 6 -74 45 -148 88 -405 233 -791 403 -1180 518 -116 35 -306 84
-355 91 -22 4 -56 11 -75 16 -19 5 -55 12 -80 15 -24 4 -47 8 -50 10 -3 1 -30
6 -61 9 -31 4 -65 8 -75 10 -19 4 -111 15 -174 21 -73 8 -299 18 -395 18 -101
0 -372 -12 -403 -17 -9 -2 -44 -7 -77 -10 -118 -13 -246 -32 -285 -41 -3 -1
-25 -5 -50 -9 -25 -4 -94 -19 -155 -33 -60 -14 -117 -26 -125 -28 -24 -5 -249
-71 -315 -93 -135 -44 -354 -129 -490 -190 -82 -37 -412 -204 -455 -230 -19
-12 -42 -25 -50 -29 -8 -4 -59 -33 -113 -66 l-98 -59 -36 43 c-61 74 -264 270
-348 338 -221 178 -513 329 -727 377 -10 2 -28 6 -40 9 -13 3 -34 7 -48 10
-14 3 -36 7 -50 10 -49 10 -275 25 -283 19z"/>
</g>
</svg>
