<svg width="1920" height="45" viewBox="0 0 1920 45" fill="#2c3e2d" xmlns="http://www.w3.org/2000/svg">
<path d="M-2073.7 1.09091V13.517H-2077.93V1.09091H-2073.7ZM-2064.94 1.09091V13.517H-2069.17V1.09091H-2064.94ZM-2060.69 1.09091H-2054.7L-2045.58 16.9602H-2045.21L-2036.09 1.09091H-2030.11L-2042.77 22.2955V36H-2048.02V22.2955L-2060.69 1.09091ZM-1996.59 18.5455C-1996.59 22.2727 -1997.27 25.4773 -1998.64 28.1591C-2000 30.8295 -2001.87 32.8864 -2004.24 34.3295C-2006.61 35.7614 -2009.3 36.4773 -2012.31 36.4773C-2015.33 36.4773 -2018.03 35.7614 -2020.4 34.3295C-2022.77 32.8864 -2024.63 30.8239 -2025.99 28.142C-2027.36 25.4602 -2028.04 22.2614 -2028.04 18.5455C-2028.04 14.8182 -2027.36 11.6193 -2025.99 8.94886C-2024.63 6.26704 -2022.77 4.21023 -2020.4 2.77841C-2018.03 1.33523 -2015.33 0.613635 -2012.31 0.613635C-2009.3 0.613635 -2006.61 1.33523 -2004.24 2.77841C-2001.87 4.21023 -2000 6.26704 -1998.64 8.94886C-1997.27 11.6193 -1996.59 14.8182 -1996.59 18.5455ZM-2001.81 18.5455C-2001.81 15.7045 -2002.27 13.3125 -2003.19 11.3693C-2004.1 9.41477 -2005.35 7.9375 -2006.94 6.9375C-2008.52 5.92614 -2010.31 5.42045 -2012.31 5.42045C-2014.32 5.42045 -2016.11 5.92614 -2017.69 6.9375C-2019.27 7.9375 -2020.52 9.41477 -2021.44 11.3693C-2022.35 13.3125 -2022.81 15.7045 -2022.81 18.5455C-2022.81 21.3864 -2022.35 23.7841 -2021.44 25.7386C-2020.52 27.6818 -2019.27 29.1591 -2017.69 30.1705C-2016.11 31.1705 -2014.32 31.6705 -2012.31 31.6705C-2010.31 31.6705 -2008.52 31.1705 -2006.94 30.1705C-2005.35 29.1591 -2004.1 27.6818 -2003.19 25.7386C-2002.27 23.7841 -2001.81 21.3864 -2001.81 18.5455ZM-1967.58 1.09091H-1962.29V24.0511C-1962.29 26.4943 -1962.87 28.6591 -1964.01 30.5455C-1965.16 32.4205 -1966.77 33.8977 -1968.85 34.9773C-1970.93 36.0455 -1973.37 36.5795 -1976.17 36.5795C-1978.95 36.5795 -1981.38 36.0455 -1983.46 34.9773C-1985.54 33.8977 -1987.15 32.4205 -1988.3 30.5455C-1989.45 28.6591 -1990.02 26.4943 -1990.02 24.0511V1.09091H-1984.76V23.625C-1984.76 25.2045 -1984.41 26.608 -1983.72 27.8352C-1983.01 29.0625 -1982.02 30.0284 -1980.73 30.733C-1979.45 31.4261 -1977.93 31.7727 -1976.17 31.7727C-1974.39 31.7727 -1972.87 31.4261 -1971.58 30.733C-1970.29 30.0284 -1969.3 29.0625 -1968.62 27.8352C-1967.92 26.608 -1967.58 25.2045 -1967.58 23.625V1.09091ZM-1951.17 1.09091V13.517H-1955.4V1.09091H-1951.17ZM-1944.18 36V1.09091H-1931.74C-1929.03 1.09091 -1926.79 1.55682 -1925 2.48864C-1923.21 3.42045 -1921.87 4.71023 -1920.98 6.35795C-1920.1 7.99432 -1919.65 9.88636 -1919.65 12.0341C-1919.65 14.1705 -1920.1 16.0511 -1921 17.6761C-1921.88 19.2898 -1923.23 20.5455 -1925.02 21.4432C-1926.81 22.3409 -1929.05 22.7898 -1931.75 22.7898H-1941.18V18.2557H-1932.23C-1930.53 18.2557 -1929.14 18.0114 -1928.07 17.5227C-1926.99 17.0341 -1926.2 16.3239 -1925.7 15.392C-1925.2 14.4602 -1924.95 13.3409 -1924.95 12.0341C-1924.95 10.7159 -1925.21 9.57386 -1925.72 8.60795C-1926.22 7.64204 -1927.01 6.90341 -1928.09 6.39205C-1929.16 5.86932 -1930.56 5.60795 -1932.3 5.60795H-1938.91V36H-1944.18ZM-1926.95 20.25L-1918.32 36H-1924.32L-1932.78 20.25H-1926.95ZM-1913.24 36V1.09091H-1891.36V5.625H-1907.98V16.2614H-1892.5V20.7784H-1907.98V31.4659H-1891.15V36H-1913.24ZM-1873.34 5.625V1.09091H-1846.32V5.625H-1857.21V36H-1862.46V5.625H-1873.34ZM-1840.35 36V1.09091H-1835.09V16.2614H-1817.68V1.09091H-1812.4V36H-1817.68V20.7784H-1835.09V36H-1840.35ZM-1804.73 36V1.09091H-1782.84V5.625H-1799.46V16.2614H-1783.98V20.7784H-1799.46V31.4659H-1782.64V36H-1804.73ZM-1763.1 36V1.09091H-1750.32C-1747.84 1.09091 -1745.79 1.5 -1744.16 2.31818C-1742.54 3.125 -1741.32 4.22159 -1740.52 5.60795C-1739.71 6.98295 -1739.31 8.53409 -1739.31 10.2614C-1739.31 11.7159 -1739.57 12.9432 -1740.11 13.9432C-1740.64 14.9318 -1741.36 15.7273 -1742.26 16.3295C-1743.14 16.9205 -1744.12 17.3523 -1745.19 17.625V17.9659C-1744.03 18.0227 -1742.9 18.3977 -1741.8 19.0909C-1740.68 19.7727 -1739.76 20.7443 -1739.03 22.0057C-1738.31 23.267 -1737.94 24.8011 -1737.94 26.608C-1737.94 28.392 -1738.36 29.9943 -1739.2 31.4148C-1740.03 32.8239 -1741.32 33.9432 -1743.06 34.7727C-1744.8 35.5909 -1747.02 36 -1749.72 36H-1763.1ZM-1757.84 31.483H-1750.23C-1747.71 31.483 -1745.9 30.9943 -1744.81 30.017C-1743.72 29.0398 -1743.18 27.8182 -1743.18 26.3523C-1743.18 25.25 -1743.45 24.2386 -1744.01 23.3182C-1744.57 22.3977 -1745.36 21.6648 -1746.4 21.1193C-1747.42 20.5739 -1748.64 20.3011 -1750.05 20.3011H-1757.84V31.483ZM-1757.84 16.1932H-1750.78C-1749.6 16.1932 -1748.53 15.9659 -1747.59 15.5114C-1746.64 15.0568 -1745.88 14.4205 -1745.32 13.6023C-1744.76 12.7727 -1744.47 11.7955 -1744.47 10.6705C-1744.47 9.22727 -1744.98 8.01705 -1745.99 7.03977C-1747 6.0625 -1748.55 5.57386 -1750.64 5.57386H-1757.84V16.1932ZM-1731.7 36V1.09091H-1709.81V5.625H-1726.43V16.2614H-1710.95V20.7784H-1726.43V31.4659H-1709.61V36H-1731.7ZM-1683.73 10.2614C-1683.92 8.64773 -1684.67 7.39773 -1685.98 6.51136C-1687.3 5.61364 -1688.96 5.16477 -1690.96 5.16477C-1692.39 5.16477 -1693.63 5.39205 -1694.68 5.84659C-1695.72 6.28977 -1696.54 6.90341 -1697.12 7.6875C-1697.68 8.46023 -1697.97 9.34091 -1697.97 10.3295C-1697.97 11.1591 -1697.77 11.875 -1697.39 12.4773C-1696.99 13.0795 -1696.47 13.5852 -1695.84 13.9943C-1695.19 14.392 -1694.5 14.7273 -1693.76 15C-1693.02 15.2614 -1692.31 15.4773 -1691.63 15.6477L-1688.22 16.5341C-1687.1 16.8068 -1685.96 17.1761 -1684.79 17.642C-1683.62 18.108 -1682.54 18.7216 -1681.54 19.483C-1680.54 20.2443 -1679.73 21.1875 -1679.12 22.3125C-1678.49 23.4375 -1678.18 24.7841 -1678.18 26.3523C-1678.18 28.3295 -1678.69 30.0852 -1679.71 31.6193C-1680.72 33.1534 -1682.19 34.3636 -1684.13 35.25C-1686.05 36.1364 -1688.37 36.5795 -1691.1 36.5795C-1693.71 36.5795 -1695.97 36.1648 -1697.88 35.3352C-1699.79 34.5057 -1701.29 33.3295 -1702.37 31.8068C-1703.44 30.2727 -1704.04 28.4545 -1704.15 26.3523H-1698.87C-1698.77 27.6136 -1698.36 28.6648 -1697.64 29.5057C-1696.92 30.3352 -1695.99 30.9545 -1694.87 31.3636C-1693.73 31.7614 -1692.48 31.9602 -1691.13 31.9602C-1689.64 31.9602 -1688.32 31.7273 -1687.16 31.2614C-1685.99 30.7841 -1685.07 30.125 -1684.4 29.2841C-1683.73 28.4318 -1683.39 27.4375 -1683.39 26.3011C-1683.39 25.267 -1683.69 24.4205 -1684.28 23.7614C-1684.86 23.1023 -1685.65 22.5568 -1686.65 22.125C-1687.64 21.6932 -1688.76 21.3125 -1690.01 20.983L-1694.13 19.858C-1696.93 19.0966 -1699.14 17.9773 -1700.78 16.5C-1702.4 15.0227 -1703.22 13.0682 -1703.22 10.6364C-1703.22 8.625 -1702.67 6.86932 -1701.58 5.36932C-1700.49 3.86932 -1699.01 2.70454 -1697.15 1.875C-1695.29 1.03409 -1693.18 0.613635 -1690.84 0.613635C-1688.48 0.613635 -1686.39 1.02841 -1684.59 1.85795C-1682.77 2.6875 -1681.34 3.82955 -1680.29 5.28409C-1679.25 6.72727 -1678.7 8.38636 -1678.65 10.2614H-1683.73ZM-1673.61 5.625V1.09091H-1646.59V5.625H-1657.48V36H-1662.73V5.625H-1673.61ZM-1639.31 36.3239C-1640.24 36.3239 -1641.04 35.9943 -1641.71 35.3352C-1642.38 34.6648 -1642.72 33.858 -1642.72 32.9148C-1642.72 31.983 -1642.38 31.1875 -1641.71 30.5284C-1641.04 29.858 -1640.24 29.5227 -1639.31 29.5227C-1638.38 29.5227 -1637.58 29.858 -1636.91 30.5284C-1636.24 31.1875 -1635.9 31.983 -1635.9 32.9148C-1635.9 33.5398 -1636.06 34.1136 -1636.38 34.6364C-1636.68 35.1477 -1637.09 35.5568 -1637.61 35.8636C-1638.12 36.1705 -1638.68 36.3239 -1639.31 36.3239ZM-1629.42 1.09091V13.517H-1633.65V1.09091H-1629.42ZM-1620.66 1.09091V13.517H-1624.89V1.09091H-1620.66ZM-1556.84 16.3466V20.7614H-1604.84V16.3466H-1556.84ZM-1516.68 12.1193C-1517.01 11.0852 -1517.45 10.1591 -1518.01 9.34091C-1518.56 8.51136 -1519.21 7.80682 -1519.97 7.22727C-1520.73 6.63636 -1521.6 6.1875 -1522.58 5.88068C-1523.54 5.57386 -1524.61 5.42045 -1525.77 5.42045C-1527.73 5.42045 -1529.5 5.92614 -1531.08 6.9375C-1532.66 7.94886 -1533.91 9.43182 -1534.83 11.3864C-1535.74 13.3295 -1536.2 15.7102 -1536.2 18.5284C-1536.2 21.358 -1535.74 23.75 -1534.82 25.7045C-1533.9 27.6591 -1532.63 29.142 -1531.03 30.1534C-1529.43 31.1648 -1527.61 31.6705 -1525.56 31.6705C-1523.66 31.6705 -1522.01 31.2841 -1520.6 30.5114C-1519.18 29.7386 -1518.08 28.6477 -1517.31 27.2386C-1516.53 25.8182 -1516.13 24.1477 -1516.13 22.2273L-1514.77 22.483H-1524.76V18.1364H-1511.04V22.108C-1511.04 25.0398 -1511.66 27.5852 -1512.91 29.7443C-1514.15 31.892 -1515.87 33.5511 -1518.06 34.7216C-1520.24 35.892 -1522.74 36.4773 -1525.56 36.4773C-1528.72 36.4773 -1531.49 35.75 -1533.88 34.2955C-1536.25 32.8409 -1538.11 30.7784 -1539.44 28.108C-1540.77 25.4261 -1541.43 22.2443 -1541.43 18.5625C-1541.43 15.7784 -1541.04 13.2784 -1540.27 11.0625C-1539.5 8.84659 -1538.41 6.96591 -1537.02 5.42045C-1535.61 3.86364 -1533.95 2.67614 -1532.06 1.85795C-1530.15 1.02841 -1528.06 0.613635 -1525.8 0.613635C-1523.91 0.613635 -1522.16 0.892044 -1520.53 1.44886C-1518.9 2.00568 -1517.44 2.79545 -1516.17 3.81818C-1514.88 4.84091 -1513.82 6.05682 -1512.98 7.46591C-1512.14 8.86364 -1511.57 10.4148 -1511.28 12.1193H-1516.68ZM-1481.9 1.09091H-1476.62V24.0511C-1476.62 26.4943 -1477.19 28.6591 -1478.34 30.5455C-1479.49 32.4205 -1481.1 33.8977 -1483.18 34.9773C-1485.26 36.0455 -1487.7 36.5795 -1490.49 36.5795C-1493.28 36.5795 -1495.71 36.0455 -1497.79 34.9773C-1499.87 33.8977 -1501.48 32.4205 -1502.63 30.5455C-1503.78 28.6591 -1504.35 26.4943 -1504.35 24.0511V1.09091H-1499.09V23.625C-1499.09 25.2045 -1498.74 26.608 -1498.05 27.8352C-1497.34 29.0625 -1496.35 30.0284 -1495.06 30.733C-1493.78 31.4261 -1492.26 31.7727 -1490.49 31.7727C-1488.72 31.7727 -1487.19 31.4261 -1485.91 30.733C-1484.61 30.0284 -1483.62 29.0625 -1482.94 27.8352C-1482.25 26.608 -1481.9 25.2045 -1481.9 23.625V1.09091ZM-1462.13 36L-1471.81 1.09091H-1466.27L-1459.47 28.125H-1459.14L-1452.07 1.09091H-1446.58L-1439.51 28.142H-1439.18L-1432.4 1.09091H-1426.84L-1436.54 36H-1441.84L-1449.19 9.85227H-1449.46L-1456.81 36H-1462.13ZM-1393.45 18.5455C-1393.45 22.2727 -1394.13 25.4773 -1395.5 28.1591C-1396.86 30.8295 -1398.73 32.8864 -1401.1 34.3295C-1403.47 35.7614 -1406.15 36.4773 -1409.17 36.4773C-1412.19 36.4773 -1414.89 35.7614 -1417.26 34.3295C-1419.63 32.8864 -1421.49 30.8239 -1422.85 28.142C-1424.22 25.4602 -1424.9 22.2614 -1424.9 18.5455C-1424.9 14.8182 -1424.22 11.6193 -1422.85 8.94886C-1421.49 6.26704 -1419.63 4.21023 -1417.26 2.77841C-1414.89 1.33523 -1412.19 0.613635 -1409.17 0.613635C-1406.15 0.613635 -1403.47 1.33523 -1401.1 2.77841C-1398.73 4.21023 -1396.86 6.26704 -1395.5 8.94886C-1394.13 11.6193 -1393.45 14.8182 -1393.45 18.5455ZM-1398.67 18.5455C-1398.67 15.7045 -1399.13 13.3125 -1400.05 11.3693C-1400.96 9.41477 -1402.21 7.9375 -1403.8 6.9375C-1405.38 5.92614 -1407.17 5.42045 -1409.17 5.42045C-1411.18 5.42045 -1412.97 5.92614 -1414.55 6.9375C-1416.13 7.9375 -1417.38 9.41477 -1418.3 11.3693C-1419.21 13.3125 -1419.67 15.7045 -1419.67 18.5455C-1419.67 21.3864 -1419.21 23.7841 -1418.3 25.7386C-1417.38 27.6818 -1416.13 29.1591 -1414.55 30.1705C-1412.97 31.1705 -1411.18 31.6705 -1409.17 31.6705C-1407.17 31.6705 -1405.38 31.1705 -1403.8 30.1705C-1402.21 29.1591 -1400.96 27.6818 -1400.05 25.7386C-1399.13 23.7841 -1398.67 21.3864 -1398.67 18.5455ZM-1386.88 36V1.09091H-1374.44C-1371.72 1.09091 -1369.47 1.58523 -1367.69 2.57386C-1365.91 3.5625 -1364.57 4.91477 -1363.68 6.63068C-1362.8 8.33523 -1362.36 10.2557 -1362.36 12.392C-1362.36 14.5398 -1362.8 16.4716 -1363.7 18.1875C-1364.59 19.892 -1365.93 21.2443 -1367.72 22.2443C-1369.51 23.233 -1371.75 23.7273 -1374.46 23.7273H-1383.01V19.2614H-1374.93C-1373.22 19.2614 -1371.83 18.9659 -1370.76 18.375C-1369.69 17.7727 -1368.91 16.9545 -1368.41 15.9205C-1367.91 14.8864 -1367.66 13.7102 -1367.66 12.392C-1367.66 11.0739 -1367.91 9.90341 -1368.41 8.88068C-1368.91 7.85795 -1369.7 7.05682 -1370.78 6.47727C-1371.84 5.89773 -1373.25 5.60795 -1375 5.60795H-1381.62V36H-1386.88ZM-1351.88 31.2273L-1352.14 33.0852C-1352.31 34.4489 -1352.6 35.8693 -1353.01 37.3466C-1353.4 38.8352 -1353.82 40.2159 -1354.25 41.4886C-1354.67 42.7614 -1355.02 43.7727 -1355.29 44.5227H-1358.9C-1358.76 43.8182 -1358.55 42.8636 -1358.29 41.6591C-1358.03 40.4659 -1357.77 39.1307 -1357.52 37.6534C-1357.27 36.1761 -1357.09 34.6705 -1356.96 33.1364L-1356.79 31.2273H-1351.88ZM-1313.09 10.2614C-1313.28 8.64773 -1314.03 7.39773 -1315.34 6.51136C-1316.66 5.61364 -1318.32 5.16477 -1320.32 5.16477C-1321.75 5.16477 -1322.99 5.39205 -1324.04 5.84659C-1325.08 6.28977 -1325.89 6.90341 -1326.47 7.6875C-1327.04 8.46023 -1327.33 9.34091 -1327.33 10.3295C-1327.33 11.1591 -1327.13 11.875 -1326.75 12.4773C-1326.35 13.0795 -1325.83 13.5852 -1325.2 13.9943C-1324.55 14.392 -1323.86 14.7273 -1323.12 15C-1322.38 15.2614 -1321.67 15.4773 -1320.99 15.6477L-1317.58 16.5341C-1316.46 16.8068 -1315.32 17.1761 -1314.15 17.642C-1312.98 18.108 -1311.89 18.7216 -1310.89 19.483C-1309.89 20.2443 -1309.09 21.1875 -1308.47 22.3125C-1307.85 23.4375 -1307.54 24.7841 -1307.54 26.3523C-1307.54 28.3295 -1308.05 30.0852 -1309.07 31.6193C-1310.08 33.1534 -1311.55 34.3636 -1313.49 35.25C-1315.41 36.1364 -1317.73 36.5795 -1320.46 36.5795C-1323.07 36.5795 -1325.33 36.1648 -1327.24 35.3352C-1329.15 34.5057 -1330.64 33.3295 -1331.72 31.8068C-1332.8 30.2727 -1333.4 28.4545 -1333.51 26.3523H-1328.23C-1328.13 27.6136 -1327.72 28.6648 -1327 29.5057C-1326.28 30.3352 -1325.35 30.9545 -1324.22 31.3636C-1323.09 31.7614 -1321.84 31.9602 -1320.49 31.9602C-1319 31.9602 -1317.68 31.7273 -1316.52 31.2614C-1315.35 30.7841 -1314.43 30.125 -1313.76 29.2841C-1313.09 28.4318 -1312.75 27.4375 -1312.75 26.3011C-1312.75 25.267 -1313.05 24.4205 -1313.64 23.7614C-1314.22 23.1023 -1315.01 22.5568 -1316.01 22.125C-1317 21.6932 -1318.12 21.3125 -1319.37 20.983L-1323.49 19.858C-1326.29 19.0966 -1328.5 17.9773 -1330.14 16.5C-1331.76 15.0227 -1332.58 13.0682 -1332.58 10.6364C-1332.58 8.625 -1332.03 6.86932 -1330.94 5.36932C-1329.85 3.86932 -1328.37 2.70454 -1326.51 1.875C-1324.64 1.03409 -1322.54 0.613635 -1320.2 0.613635C-1317.84 0.613635 -1315.75 1.02841 -1313.95 1.85795C-1312.13 2.6875 -1310.7 3.82955 -1309.65 5.28409C-1308.61 6.72727 -1308.06 8.38636 -1308.01 10.2614H-1313.09ZM-1270.92 18.5455C-1270.92 22.2727 -1271.6 25.4773 -1272.96 28.1591C-1274.33 30.8295 -1276.2 32.8864 -1278.57 34.3295C-1280.94 35.7614 -1283.62 36.4773 -1286.63 36.4773C-1289.66 36.4773 -1292.36 35.7614 -1294.73 34.3295C-1297.1 32.8864 -1298.96 30.8239 -1300.32 28.142C-1301.69 25.4602 -1302.37 22.2614 -1302.37 18.5455C-1302.37 14.8182 -1301.69 11.6193 -1300.32 8.94886C-1298.96 6.26704 -1297.1 4.21023 -1294.73 2.77841C-1292.36 1.33523 -1289.66 0.613635 -1286.63 0.613635C-1283.62 0.613635 -1280.94 1.33523 -1278.57 2.77841C-1276.2 4.21023 -1274.33 6.26704 -1272.96 8.94886C-1271.6 11.6193 -1270.92 14.8182 -1270.92 18.5455ZM-1276.13 18.5455C-1276.13 15.7045 -1276.6 13.3125 -1277.52 11.3693C-1278.42 9.41477 -1279.67 7.9375 -1281.27 6.9375C-1282.85 5.92614 -1284.63 5.42045 -1286.63 5.42045C-1288.65 5.42045 -1290.44 5.92614 -1292.02 6.9375C-1293.6 7.9375 -1294.85 9.41477 -1295.77 11.3693C-1296.68 13.3125 -1297.13 15.7045 -1297.13 18.5455C-1297.13 21.3864 -1296.68 23.7841 -1295.77 25.7386C-1294.85 27.6818 -1293.6 29.1591 -1292.02 30.1705C-1290.44 31.1705 -1288.65 31.6705 -1286.63 31.6705C-1284.63 31.6705 -1282.85 31.1705 -1281.27 30.1705C-1279.67 29.1591 -1278.42 27.6818 -1277.52 25.7386C-1276.6 23.7841 -1276.13 21.3864 -1276.13 18.5455ZM-1235.36 12.4432H-1240.68C-1240.88 11.3068 -1241.26 10.3068 -1241.82 9.44318C-1242.37 8.57955 -1243.06 7.84659 -1243.86 7.24432C-1244.67 6.64204 -1245.57 6.1875 -1246.57 5.88068C-1247.56 5.57386 -1248.61 5.42045 -1249.73 5.42045C-1251.74 5.42045 -1253.54 5.92614 -1255.13 6.9375C-1256.71 7.94886 -1257.96 9.43182 -1258.88 11.3864C-1259.79 13.3409 -1260.24 15.7273 -1260.24 18.5455C-1260.24 21.3864 -1259.79 23.7841 -1258.88 25.7386C-1257.96 27.6932 -1256.7 29.1705 -1255.11 30.1705C-1253.52 31.1705 -1251.73 31.6705 -1249.74 31.6705C-1248.64 31.6705 -1247.6 31.5227 -1246.61 31.2273C-1245.61 30.9205 -1244.7 30.4716 -1243.9 29.8807C-1243.09 29.2898 -1242.41 28.5682 -1241.85 27.7159C-1241.28 26.8523 -1240.89 25.8636 -1240.68 24.75L-1235.36 24.767C-1235.64 26.483 -1236.19 28.0625 -1237.01 29.5057C-1237.82 30.9375 -1238.86 32.1761 -1240.13 33.2216C-1241.39 34.2557 -1242.84 35.0568 -1244.46 35.625C-1246.09 36.1932 -1247.86 36.4773 -1249.78 36.4773C-1252.8 36.4773 -1255.49 35.7614 -1257.86 34.3295C-1260.22 32.8864 -1262.09 30.8239 -1263.45 28.142C-1264.8 25.4602 -1265.48 22.2614 -1265.48 18.5455C-1265.48 14.8182 -1264.8 11.6193 -1263.43 8.94886C-1262.07 6.26704 -1260.2 4.21023 -1257.84 2.77841C-1255.48 1.33523 -1252.79 0.613635 -1249.78 0.613635C-1247.93 0.613635 -1246.2 0.880681 -1244.6 1.41477C-1242.98 1.9375 -1241.53 2.71023 -1240.25 3.73295C-1238.97 4.74432 -1237.9 5.98295 -1237.06 7.44886C-1236.22 8.90341 -1235.65 10.5682 -1235.36 12.4432ZM-1223.79 1.09091V36H-1229.06V1.09091H-1223.79ZM-1213.17 36H-1218.76L-1206.2 1.09091H-1200.11L-1187.55 36H-1193.14L-1203.01 7.43182H-1203.28L-1213.17 36ZM-1212.23 22.3295H-1194.1V26.7614H-1212.23V22.3295ZM-1182.51 36V1.09091H-1177.24V31.4659H-1161.42V36H-1182.51ZM-1142.71 1.09091H-1136.32L-1125.21 28.2273H-1124.8L-1113.68 1.09091H-1107.29V36H-1112.3V10.7386H-1112.63L-1122.92 35.9489H-1127.08L-1137.38 10.7216H-1137.7V36H-1142.71V1.09091ZM-1099.63 36V1.09091H-1077.75V5.625H-1094.37V16.2614H-1078.89V20.7784H-1094.37V31.4659H-1077.54V36H-1099.63ZM-1059.41 36H-1070.71V1.09091H-1059.05C-1055.63 1.09091 -1052.69 1.78977 -1050.24 3.1875C-1047.79 4.57386 -1045.9 6.56818 -1044.6 9.17045C-1043.28 11.7614 -1042.62 14.8693 -1042.62 18.4943C-1042.62 22.1307 -1043.29 25.2557 -1044.62 27.8693C-1045.93 30.483 -1047.84 32.4943 -1050.34 33.9034C-1052.84 35.3011 -1055.87 36 -1059.41 36ZM-1065.44 31.3977H-1059.7C-1057.04 31.3977 -1054.83 30.8977 -1053.07 29.8977C-1051.31 28.8864 -1049.99 27.4261 -1049.12 25.517C-1048.24 23.5966 -1047.8 21.2557 -1047.8 18.4943C-1047.8 15.7557 -1048.24 13.4318 -1049.12 11.5227C-1049.98 9.61364 -1051.27 8.16477 -1052.98 7.17614C-1054.7 6.1875 -1056.83 5.69318 -1059.38 5.69318H-1065.44V31.3977ZM-1030.8 1.09091V36H-1036.07V1.09091H-1030.8ZM-1020.18 36H-1025.78L-1013.21 1.09091H-1007.13L-994.565 36H-1000.16L-1010.03 7.43182H-1010.3L-1020.18 36ZM-1019.25 22.3295H-1001.11V26.7614H-1019.25V22.3295ZM-976.821 1.09091H-970.429L-959.315 28.2273H-958.906L-947.793 1.09091H-941.401V36H-946.412V10.7386H-946.736L-957.031 35.9489H-961.19L-971.486 10.7216H-971.81V36H-976.821V1.09091ZM-930.794 36H-936.385L-923.822 1.09091H-917.737L-905.175 36H-910.766L-920.635 7.43182H-920.908L-930.794 36ZM-929.857 22.3295H-911.72V26.7614H-929.857V22.3295ZM-871.957 1.09091V36H-876.798L-894.543 10.3977H-894.866V36H-900.134V1.09091H-895.259L-877.497 26.7273H-877.173V1.09091H-871.957ZM-861.325 36H-866.916L-854.354 1.09091H-848.268L-835.706 36H-841.297L-851.166 7.43182H-851.439L-861.325 36ZM-860.388 22.3295H-842.251V26.7614H-860.388V22.3295ZM-808.68 12.1193C-809.01 11.0852 -809.453 10.1591 -810.01 9.34091C-810.555 8.51136 -811.209 7.80682 -811.97 7.22727C-812.732 6.63636 -813.601 6.1875 -814.578 5.88068C-815.544 5.57386 -816.607 5.42045 -817.766 5.42045C-819.732 5.42045 -821.504 5.92614 -823.084 6.9375C-824.663 7.94886 -825.913 9.43182 -826.834 11.3864C-827.743 13.3295 -828.197 15.7102 -828.197 18.5284C-828.197 21.358 -827.737 23.75 -826.817 25.7045C-825.896 27.6591 -824.635 29.142 -823.033 30.1534C-821.43 31.1648 -819.607 31.6705 -817.561 31.6705C-815.663 31.6705 -814.01 31.2841 -812.601 30.5114C-811.18 29.7386 -810.084 28.6477 -809.311 27.2386C-808.527 25.8182 -808.135 24.1477 -808.135 22.2273L-806.771 22.483H-816.76V18.1364H-803.038V22.108C-803.038 25.0398 -803.663 27.5852 -804.913 29.7443C-806.152 31.892 -807.868 33.5511 -810.061 34.7216C-812.243 35.892 -814.743 36.4773 -817.561 36.4773C-820.72 36.4773 -823.493 35.75 -825.879 34.2955C-828.254 32.8409 -830.107 30.7784 -831.436 28.108C-832.766 25.4261 -833.43 22.2443 -833.43 18.5625C-833.43 15.7784 -833.044 13.2784 -832.271 11.0625C-831.499 8.84659 -830.413 6.96591 -829.016 5.42045C-827.607 3.86364 -825.953 2.67614 -824.055 1.85795C-822.146 1.02841 -820.061 0.613635 -817.8 0.613635C-815.913 0.613635 -814.158 0.892044 -812.533 1.44886C-810.896 2.00568 -809.442 2.79545 -808.169 3.81818C-806.885 4.84091 -805.822 6.05682 -804.982 7.46591C-804.141 8.86364 -803.572 10.4148 -803.277 12.1193H-808.68ZM-796.352 36V1.09091H-774.466V5.625H-791.085V16.2614H-775.608V20.7784H-791.085V31.4659H-774.261V36H-796.352ZM-767.43 36V1.09091H-754.987C-752.283 1.09091 -750.038 1.55682 -748.254 2.48864C-746.459 3.42045 -745.118 4.71023 -744.232 6.35795C-743.345 7.99432 -742.902 9.88636 -742.902 12.0341C-742.902 14.1705 -743.351 16.0511 -744.249 17.6761C-745.135 19.2898 -746.476 20.5455 -748.271 21.4432C-750.055 22.3409 -752.3 22.7898 -755.004 22.7898H-764.43V18.2557H-755.482C-753.777 18.2557 -752.391 18.0114 -751.322 17.5227C-750.243 17.0341 -749.453 16.3239 -748.953 15.392C-748.453 14.4602 -748.203 13.3409 -748.203 12.0341C-748.203 10.7159 -748.459 9.57386 -748.97 8.60795C-749.47 7.64204 -750.26 6.90341 -751.339 6.39205C-752.408 5.86932 -753.811 5.60795 -755.55 5.60795H-762.163V36H-767.43ZM-750.197 20.25L-741.572 36H-747.572L-756.027 20.25H-750.197ZM-733.544 36.3239C-734.476 36.3239 -735.277 35.9943 -735.947 35.3352C-736.618 34.6648 -736.953 33.858 -736.953 32.9148C-736.953 31.983 -736.618 31.1875 -735.947 30.5284C-735.277 29.858 -734.476 29.5227 -733.544 29.5227C-732.612 29.5227 -731.811 29.858 -731.141 30.5284C-730.47 31.1875 -730.135 31.983 -730.135 32.9148C-730.135 33.5398 -730.294 34.1136 -730.612 34.6364C-730.919 35.1477 -731.328 35.5568 -731.839 35.8636C-732.351 36.1705 -732.919 36.3239 -733.544 36.3239ZM-707.298 1.09091V13.517H-711.526V1.09091H-707.298ZM-698.537 1.09091V13.517H-702.764V1.09091H-698.537ZM-672.547 10.2614C-672.729 8.64773 -673.479 7.39773 -674.797 6.51136C-676.115 5.61364 -677.774 5.16477 -679.774 5.16477C-681.206 5.16477 -682.445 5.39205 -683.49 5.84659C-684.536 6.28977 -685.348 6.90341 -685.928 7.6875C-686.496 8.46023 -686.78 9.34091 -686.78 10.3295C-686.78 11.1591 -686.587 11.875 -686.2 12.4773C-685.803 13.0795 -685.286 13.5852 -684.649 13.9943C-684.001 14.392 -683.308 14.7273 -682.57 15C-681.831 15.2614 -681.121 15.4773 -680.439 15.6477L-677.03 16.5341C-675.916 16.8068 -674.774 17.1761 -673.604 17.642C-672.433 18.108 -671.348 18.7216 -670.348 19.483C-669.348 20.2443 -668.541 21.1875 -667.928 22.3125C-667.303 23.4375 -666.99 24.7841 -666.99 26.3523C-666.99 28.3295 -667.501 30.0852 -668.524 31.6193C-669.536 33.1534 -671.007 34.3636 -672.939 35.25C-674.859 36.1364 -677.183 36.5795 -679.911 36.5795C-682.524 36.5795 -684.786 36.1648 -686.695 35.3352C-688.604 34.5057 -690.098 33.3295 -691.178 31.8068C-692.257 30.2727 -692.854 28.4545 -692.967 26.3523H-687.683C-687.581 27.6136 -687.172 28.6648 -686.456 29.5057C-685.729 30.3352 -684.803 30.9545 -683.678 31.3636C-682.541 31.7614 -681.297 31.9602 -679.945 31.9602C-678.456 31.9602 -677.132 31.7273 -675.973 31.2614C-674.803 30.7841 -673.882 30.125 -673.212 29.2841C-672.541 28.4318 -672.206 27.4375 -672.206 26.3011C-672.206 25.267 -672.501 24.4205 -673.092 23.7614C-673.672 23.1023 -674.462 22.5568 -675.462 22.125C-676.45 21.6932 -677.57 21.3125 -678.82 20.983L-682.945 19.858C-685.74 19.0966 -687.956 17.9773 -689.592 16.5C-691.217 15.0227 -692.03 13.0682 -692.03 10.6364C-692.03 8.625 -691.484 6.86932 -690.393 5.36932C-689.303 3.86932 -687.825 2.70454 -685.962 1.875C-684.098 1.03409 -681.996 0.613635 -679.655 0.613635C-677.291 0.613635 -675.206 1.02841 -673.399 1.85795C-671.581 2.6875 -670.149 3.82955 -669.104 5.28409C-668.058 6.72727 -667.513 8.38636 -667.467 10.2614H-672.547ZM-655.429 1.09091V36H-660.696V1.09091H-655.429ZM-618.764 12.4432H-624.082C-624.287 11.3068 -624.668 10.3068 -625.224 9.44318C-625.781 8.57955 -626.463 7.84659 -627.27 7.24432C-628.077 6.64204 -628.98 6.1875 -629.98 5.88068C-630.969 5.57386 -632.02 5.42045 -633.134 5.42045C-635.145 5.42045 -636.946 5.92614 -638.537 6.9375C-640.116 7.94886 -641.366 9.43182 -642.287 11.3864C-643.196 13.3409 -643.651 15.7273 -643.651 18.5455C-643.651 21.3864 -643.196 23.7841 -642.287 25.7386C-641.366 27.6932 -640.111 29.1705 -638.52 30.1705C-636.929 31.1705 -635.139 31.6705 -633.151 31.6705C-632.048 31.6705 -631.003 31.5227 -630.014 31.2273C-629.014 30.9205 -628.111 30.4716 -627.304 29.8807C-626.497 29.2898 -625.815 28.5682 -625.259 27.7159C-624.69 26.8523 -624.298 25.8636 -624.082 24.75L-618.764 24.767C-619.048 26.483 -619.599 28.0625 -620.418 29.5057C-621.224 30.9375 -622.264 32.1761 -623.537 33.2216C-624.798 34.2557 -626.241 35.0568 -627.866 35.625C-629.491 36.1932 -631.264 36.4773 -633.185 36.4773C-636.207 36.4773 -638.901 35.7614 -641.264 34.3295C-643.628 32.8864 -645.491 30.8239 -646.855 28.142C-648.207 25.4602 -648.884 22.2614 -648.884 18.5455C-648.884 14.8182 -648.202 11.6193 -646.838 8.94886C-645.474 6.26704 -643.611 4.21023 -641.247 2.77841C-638.884 1.33523 -636.196 0.613635 -633.185 0.613635C-631.332 0.613635 -629.605 0.880681 -628.003 1.41477C-626.389 1.9375 -624.94 2.71023 -623.656 3.73295C-622.372 4.74432 -621.31 5.98295 -620.469 7.44886C-619.628 8.90341 -619.06 10.5682 -618.764 12.4432ZM-612.462 36V1.09091H-607.195V17.7614H-606.768L-592.126 1.09091H-585.496L-599.575 16.8068L-585.445 36H-591.786L-603.07 20.4034L-607.195 25.142V36H-612.462ZM-580.587 36V1.09091H-558.7V5.625H-575.32V16.2614H-559.842V20.7784H-575.32V31.4659H-558.496V36H-580.587ZM-532.625 10.2614C-532.807 8.64773 -533.557 7.39773 -534.875 6.51136C-536.193 5.61364 -537.852 5.16477 -539.852 5.16477C-541.284 5.16477 -542.523 5.39205 -543.568 5.84659C-544.614 6.28977 -545.426 6.90341 -546.006 7.6875C-546.574 8.46023 -546.858 9.34091 -546.858 10.3295C-546.858 11.1591 -546.665 11.875 -546.278 12.4773C-545.881 13.0795 -545.364 13.5852 -544.727 13.9943C-544.08 14.392 -543.386 14.7273 -542.648 15C-541.909 15.2614 -541.199 15.4773 -540.517 15.6477L-537.108 16.5341C-535.994 16.8068 -534.852 17.1761 -533.682 17.642C-532.511 18.108 -531.426 18.7216 -530.426 19.483C-529.426 20.2443 -528.619 21.1875 -528.006 22.3125C-527.381 23.4375 -527.068 24.7841 -527.068 26.3523C-527.068 28.3295 -527.58 30.0852 -528.602 31.6193C-529.614 33.1534 -531.085 34.3636 -533.017 35.25C-534.937 36.1364 -537.261 36.5795 -539.989 36.5795C-542.602 36.5795 -544.864 36.1648 -546.773 35.3352C-548.682 34.5057 -550.176 33.3295 -551.256 31.8068C-552.335 30.2727 -552.932 28.4545 -553.045 26.3523H-547.761C-547.659 27.6136 -547.25 28.6648 -546.534 29.5057C-545.807 30.3352 -544.881 30.9545 -543.756 31.3636C-542.619 31.7614 -541.375 31.9602 -540.023 31.9602C-538.534 31.9602 -537.21 31.7273 -536.051 31.2614C-534.881 30.7841 -533.96 30.125 -533.29 29.2841C-532.619 28.4318 -532.284 27.4375 -532.284 26.3011C-532.284 25.267 -532.58 24.4205 -533.17 23.7614C-533.75 23.1023 -534.54 22.5568 -535.54 22.125C-536.528 21.6932 -537.648 21.3125 -538.898 20.983L-543.023 19.858C-545.818 19.0966 -548.034 17.9773 -549.67 16.5C-551.295 15.0227 -552.108 13.0682 -552.108 10.6364C-552.108 8.625 -551.562 6.86932 -550.472 5.36932C-549.381 3.86932 -547.903 2.70454 -546.04 1.875C-544.176 1.03409 -542.074 0.613635 -539.733 0.613635C-537.369 0.613635 -535.284 1.02841 -533.477 1.85795C-531.659 2.6875 -530.227 3.82955 -529.182 5.28409C-528.136 6.72727 -527.591 8.38636 -527.545 10.2614H-532.625ZM-522.496 5.625V1.09091H-495.479V5.625H-506.371V36H-511.621V5.625H-522.496ZM-457.766 10.2614C-457.947 8.64773 -458.697 7.39773 -460.016 6.51136C-461.334 5.61364 -462.993 5.16477 -464.993 5.16477C-466.425 5.16477 -467.663 5.39205 -468.709 5.84659C-469.754 6.28977 -470.567 6.90341 -471.146 7.6875C-471.714 8.46023 -471.999 9.34091 -471.999 10.3295C-471.999 11.1591 -471.805 11.875 -471.419 12.4773C-471.021 13.0795 -470.504 13.5852 -469.868 13.9943C-469.22 14.392 -468.527 14.7273 -467.788 15C-467.05 15.2614 -466.339 15.4773 -465.658 15.6477L-462.249 16.5341C-461.135 16.8068 -459.993 17.1761 -458.822 17.642C-457.652 18.108 -456.567 18.7216 -455.567 19.483C-454.567 20.2443 -453.76 21.1875 -453.146 22.3125C-452.521 23.4375 -452.209 24.7841 -452.209 26.3523C-452.209 28.3295 -452.72 30.0852 -453.743 31.6193C-454.754 33.1534 -456.226 34.3636 -458.158 35.25C-460.078 36.1364 -462.402 36.5795 -465.129 36.5795C-467.743 36.5795 -470.004 36.1648 -471.913 35.3352C-473.822 34.5057 -475.317 33.3295 -476.396 31.8068C-477.476 30.2727 -478.072 28.4545 -478.186 26.3523H-472.902C-472.8 27.6136 -472.391 28.6648 -471.675 29.5057C-470.947 30.3352 -470.021 30.9545 -468.896 31.3636C-467.76 31.7614 -466.516 31.9602 -465.163 31.9602C-463.675 31.9602 -462.351 31.7273 -461.192 31.2614C-460.021 30.7841 -459.101 30.125 -458.43 29.2841C-457.76 28.4318 -457.425 27.4375 -457.425 26.3011C-457.425 25.267 -457.72 24.4205 -458.311 23.7614C-458.891 23.1023 -459.68 22.5568 -460.68 22.125C-461.669 21.6932 -462.788 21.3125 -464.038 20.983L-468.163 19.858C-470.959 19.0966 -473.175 17.9773 -474.811 16.5C-476.436 15.0227 -477.249 13.0682 -477.249 10.6364C-477.249 8.625 -476.703 6.86932 -475.612 5.36932C-474.521 3.86932 -473.044 2.70454 -471.18 1.875C-469.317 1.03409 -467.214 0.613635 -464.874 0.613635C-462.51 0.613635 -460.425 1.02841 -458.618 1.85795C-456.8 2.6875 -455.368 3.82955 -454.322 5.28409C-453.277 6.72727 -452.732 8.38636 -452.686 10.2614H-457.766ZM-439.08 20.7273L-438.756 13.5341L-444.824 17.4375L-446.682 14.1989L-440.239 10.9091L-446.682 7.61932L-444.824 4.38068L-438.756 8.28409L-439.08 1.09091H-435.381L-435.705 8.28409L-429.636 4.38068L-427.778 7.61932L-434.222 10.9091L-427.778 14.1989L-429.636 17.4375L-435.705 13.5341L-435.381 20.7273H-439.08ZM-414.048 20.7273L-413.724 13.5341L-419.793 17.4375L-421.651 14.1989L-415.207 10.9091L-421.651 7.61932L-419.793 4.38068L-413.724 8.28409L-414.048 1.09091H-410.349L-410.673 8.28409L-404.605 4.38068L-402.747 7.61932L-409.19 10.9091L-402.747 14.1989L-404.605 17.4375L-410.673 13.5341L-410.349 20.7273H-414.048ZM-389.017 20.7273L-388.693 13.5341L-394.761 17.4375L-396.619 14.1989L-390.176 10.9091L-396.619 7.61932L-394.761 4.38068L-388.693 8.28409L-389.017 1.09091H-385.318L-385.642 8.28409L-379.574 4.38068L-377.716 7.61932L-384.159 10.9091L-377.716 14.1989L-379.574 17.4375L-385.642 13.5341L-385.318 20.7273H-389.017ZM-352.851 1.09091V36H-358.118V1.09091H-352.851ZM-341.72 1.09091V13.517H-345.947V1.09091H-341.72ZM-331.676 1.09091L-321.96 29.5227H-321.568L-311.852 1.09091H-306.159L-318.722 36H-324.807L-337.369 1.09091H-331.676ZM-301.118 36V1.09091H-279.232V5.625H-295.851V16.2614H-280.374V20.7784H-295.851V31.4659H-279.027V36H-301.118ZM-259.493 36V1.09091H-237.607V5.625H-254.226V16.2614H-238.749V20.7784H-254.226V31.4659H-237.402V36H-259.493ZM-227.52 1.09091L-217.804 29.5227H-217.412L-207.696 1.09091H-202.003L-214.565 36H-220.651L-233.213 1.09091H-227.52ZM-196.962 36V1.09091H-175.075V5.625H-191.695V16.2614H-176.217V20.7784H-191.695V31.4659H-174.871V36H-196.962ZM-168.04 36V1.09091H-155.597C-152.892 1.09091 -150.648 1.55682 -148.864 2.48864C-147.068 3.42045 -145.727 4.71023 -144.841 6.35795C-143.955 7.99432 -143.511 9.88636 -143.511 12.0341C-143.511 14.1705 -143.96 16.0511 -144.858 17.6761C-145.744 19.2898 -147.085 20.5455 -148.881 21.4432C-150.665 22.3409 -152.909 22.7898 -155.614 22.7898H-165.04V18.2557H-156.091C-154.386 18.2557 -153 18.0114 -151.932 17.5227C-150.852 17.0341 -150.062 16.3239 -149.562 15.392C-149.062 14.4602 -148.812 13.3409 -148.812 12.0341C-148.812 10.7159 -149.068 9.57386 -149.58 8.60795C-150.08 7.64204 -150.869 6.90341 -151.949 6.39205C-153.017 5.86932 -154.42 5.60795 -156.159 5.60795H-162.773V36H-168.04ZM-150.807 20.25L-142.182 36H-148.182L-156.636 20.25H-150.807ZM-105.359 10.2614C-105.541 8.64773 -106.291 7.39773 -107.609 6.51136C-108.928 5.61364 -110.587 5.16477 -112.587 5.16477C-114.018 5.16477 -115.257 5.39205 -116.303 5.84659C-117.348 6.28977 -118.161 6.90341 -118.74 7.6875C-119.308 8.46023 -119.592 9.34091 -119.592 10.3295C-119.592 11.1591 -119.399 11.875 -119.013 12.4773C-118.615 13.0795 -118.098 13.5852 -117.462 13.9943C-116.814 14.392 -116.121 14.7273 -115.382 15C-114.643 15.2614 -113.933 15.4773 -113.251 15.6477L-109.842 16.5341C-108.729 16.8068 -107.587 17.1761 -106.416 17.642C-105.246 18.108 -104.161 18.7216 -103.161 19.483C-102.161 20.2443 -101.354 21.1875 -100.74 22.3125C-100.115 23.4375 -99.8026 24.7841 -99.8026 26.3523C-99.8026 28.3295 -100.314 30.0852 -101.337 31.6193C-102.348 33.1534 -103.82 34.3636 -105.751 35.25C-107.672 36.1364 -109.996 36.5795 -112.723 36.5795C-115.337 36.5795 -117.598 36.1648 -119.507 35.3352C-121.416 34.5057 -122.911 33.3295 -123.99 31.8068C-125.07 30.2727 -125.666 28.4545 -125.78 26.3523H-120.496C-120.393 27.6136 -119.984 28.6648 -119.268 29.5057C-118.541 30.3352 -117.615 30.9545 -116.49 31.3636C-115.354 31.7614 -114.109 31.9602 -112.757 31.9602C-111.268 31.9602 -109.945 31.7273 -108.786 31.2614C-107.615 30.7841 -106.695 30.125 -106.024 29.2841C-105.354 28.4318 -105.018 27.4375 -105.018 26.3011C-105.018 25.267 -105.314 24.4205 -105.905 23.7614C-106.484 23.1023 -107.274 22.5568 -108.274 22.125C-109.263 21.6932 -110.382 21.3125 -111.632 20.983L-115.757 19.858C-118.553 19.0966 -120.768 17.9773 -122.405 16.5C-124.03 15.0227 -124.842 13.0682 -124.842 10.6364C-124.842 8.625 -124.297 6.86932 -123.206 5.36932C-122.115 3.86932 -120.638 2.70454 -118.774 1.875C-116.911 1.03409 -114.808 0.613635 -112.467 0.613635C-110.104 0.613635 -108.018 1.02841 -106.212 1.85795C-104.393 2.6875 -102.962 3.82955 -101.916 5.28409C-100.871 6.72727 -100.325 8.38636 -100.28 10.2614H-105.359ZM-93.5085 36V1.09091H-71.6222V5.625H-88.2415V16.2614H-72.7642V20.7784H-88.2415V31.4659H-71.4176V36H-93.5085ZM-64.5866 36V1.09091H-42.7003V5.625H-59.3196V16.2614H-43.8423V20.7784H-59.3196V31.4659H-42.4957V36H-64.5866ZM-7.48864 1.09091V36H-12.3295L-30.0739 10.3977H-30.3977V36H-35.6648V1.09091H-30.7898L-13.0284 26.7273H-12.7045V1.09091H-7.48864ZM3.14347 36.3239C2.21165 36.3239 1.41051 35.9943 0.740057 35.3352C0.0696024 34.6648 -0.265625 33.858 -0.265625 32.9148C-0.265625 31.983 0.0696024 31.1875 0.740057 30.5284C1.41051 29.858 2.21165 29.5227 3.14347 29.5227C4.07528 29.5227 4.87642 29.858 5.54688 30.5284C6.21733 31.1875 6.55256 31.983 6.55256 32.9148C6.55256 33.5398 6.39347 34.1136 6.07528 34.6364C5.76847 35.1477 5.35938 35.5568 4.84801 35.8636C4.33665 36.1705 3.76847 36.3239 3.14347 36.3239ZM13.0298 1.09091V13.517H8.80256V1.09091H13.0298ZM21.7912 1.09091V13.517H17.5639V1.09091H21.7912ZM85.6094 16.3466V20.7614H37.6094V16.3466H85.6094ZM102.148 36V1.09091H123.795V5.625H107.415V16.2614H122.244V20.7784H107.415V36H102.148ZM141.591 36.4773C139.148 36.4773 136.989 36.0568 135.114 35.2159C133.25 34.375 131.79 33.2159 130.733 31.7386C129.676 30.2614 129.153 28.5795 129.165 26.6932C129.153 25.2159 129.455 23.858 130.068 22.6193C130.693 21.3693 131.54 20.3295 132.608 19.5C133.676 18.6591 134.869 18.125 136.188 17.8977V17.6932C134.449 17.2727 133.057 16.3409 132.011 14.8977C130.966 13.4545 130.449 11.7955 130.46 9.92045C130.449 8.13636 130.92 6.54545 131.875 5.14773C132.841 3.73864 134.165 2.63068 135.847 1.82386C137.528 1.01704 139.443 0.613635 141.591 0.613635C143.716 0.613635 145.614 1.02273 147.284 1.84091C148.966 2.64773 150.29 3.75568 151.256 5.16477C152.222 6.5625 152.71 8.14773 152.722 9.92045C152.71 11.7955 152.176 13.4545 151.119 14.8977C150.063 16.3409 148.688 17.2727 146.994 17.6932V17.8977C148.301 18.125 149.477 18.6591 150.523 19.5C151.58 20.3295 152.42 21.3693 153.045 22.6193C153.682 23.858 154.006 25.2159 154.017 26.6932C154.006 28.5795 153.472 30.2614 152.415 31.7386C151.358 33.2159 149.892 34.375 148.017 35.2159C146.153 36.0568 144.011 36.4773 141.591 36.4773ZM141.591 32.1648C143.034 32.1648 144.284 31.9261 145.341 31.4489C146.398 30.9602 147.216 30.2841 147.795 29.4205C148.375 28.5455 148.67 27.5227 148.682 26.3523C148.67 25.1364 148.352 24.0625 147.727 23.1307C147.114 22.1989 146.278 21.4659 145.222 20.9318C144.165 20.3977 142.955 20.1307 141.591 20.1307C140.216 20.1307 138.994 20.3977 137.926 20.9318C136.858 21.4659 136.017 22.1989 135.403 23.1307C134.79 24.0625 134.489 25.1364 134.5 26.3523C134.489 27.5227 134.767 28.5455 135.335 29.4205C135.915 30.2841 136.739 30.9602 137.807 31.4489C138.875 31.9261 140.136 32.1648 141.591 32.1648ZM141.591 15.9205C142.75 15.9205 143.778 15.6875 144.676 15.2216C145.574 14.7557 146.278 14.108 146.79 13.2784C147.313 12.4489 147.58 11.4773 147.591 10.3636C147.58 9.27273 147.318 8.31818 146.807 7.5C146.307 6.68182 145.608 6.05114 144.71 5.60795C143.813 5.15341 142.773 4.92614 141.591 4.92614C140.386 4.92614 139.33 5.15341 138.42 5.60795C137.523 6.05114 136.824 6.68182 136.324 7.5C135.824 8.31818 135.58 9.27273 135.591 10.3636C135.58 11.4773 135.83 12.4489 136.341 13.2784C136.852 14.108 137.557 14.7557 138.455 15.2216C139.364 15.6875 140.409 15.9205 141.591 15.9205ZM158.879 5.625V1.09091H185.896V5.625H175.004V36H169.754V5.625H158.879ZM191.866 36V1.09091H213.753V5.625H197.134V16.2614H212.611V20.7784H197.134V31.4659H213.957V36H191.866ZM227.01 31.2273L226.754 33.0852C226.584 34.4489 226.294 35.8693 225.885 37.3466C225.487 38.8352 225.072 40.2159 224.641 41.4886C224.22 42.7614 223.874 43.7727 223.601 44.5227H219.987C220.135 43.8182 220.339 42.8636 220.601 41.6591C220.862 40.4659 221.118 39.1307 221.368 37.6534C221.618 36.1761 221.805 34.6705 221.93 33.1364L222.101 31.2273H227.01ZM258.433 36.4773C256.092 36.4773 254.001 36.0739 252.161 35.267C250.331 34.4602 248.882 33.3409 247.814 31.9091C246.757 30.4659 246.189 28.7955 246.109 26.8977H251.462C251.53 27.9318 251.876 28.8295 252.501 29.5909C253.138 30.3409 253.967 30.9205 254.99 31.3295C256.013 31.7386 257.149 31.9432 258.399 31.9432C259.774 31.9432 260.99 31.7045 262.047 31.2273C263.115 30.75 263.95 30.0852 264.553 29.233C265.155 28.3693 265.456 27.375 265.456 26.25C265.456 25.0795 265.155 24.0511 264.553 23.1648C263.962 22.267 263.092 21.5625 261.945 21.0511C260.808 20.5398 259.433 20.2841 257.82 20.2841H254.871V15.9886H257.82C259.115 15.9886 260.251 15.7557 261.229 15.2898C262.217 14.8239 262.99 14.1761 263.547 13.3466C264.104 12.5057 264.382 11.5227 264.382 10.3977C264.382 9.31818 264.138 8.38068 263.649 7.58523C263.172 6.77841 262.49 6.14773 261.604 5.69318C260.729 5.23864 259.695 5.01136 258.501 5.01136C257.365 5.01136 256.303 5.22159 255.314 5.64205C254.337 6.05114 253.541 6.64205 252.928 7.41477C252.314 8.17614 251.984 9.09091 251.939 10.1591H246.842C246.899 8.27273 247.456 6.61364 248.513 5.18182C249.581 3.75 250.99 2.63068 252.74 1.82386C254.49 1.01704 256.433 0.613635 258.57 0.613635C260.808 0.613635 262.74 1.05114 264.365 1.92614C266.001 2.78977 267.263 3.94318 268.149 5.38636C269.047 6.82954 269.49 8.40909 269.479 10.125C269.49 12.0795 268.945 13.7386 267.842 15.1023C266.751 16.4659 265.297 17.3807 263.479 17.8466V18.1193C265.797 18.4716 267.592 19.392 268.865 20.8807C270.149 22.3693 270.786 24.2159 270.774 26.4205C270.786 28.3409 270.251 30.0625 269.172 31.5852C268.104 33.108 266.643 34.3068 264.791 35.1818C262.939 36.0455 260.82 36.4773 258.433 36.4773ZM288.996 36H277.695V1.09091H289.354C292.774 1.09091 295.712 1.78977 298.166 3.1875C300.621 4.57386 302.501 6.56818 303.808 9.17045C305.126 11.7614 305.786 14.8693 305.786 18.4943C305.786 22.1307 305.121 25.2557 303.791 27.8693C302.473 30.483 300.564 32.4943 298.064 33.9034C295.564 35.3011 292.541 36 288.996 36ZM282.962 31.3977H288.706C291.365 31.3977 293.575 30.8977 295.337 29.8977C297.098 28.8864 298.416 27.4261 299.291 25.517C300.166 23.5966 300.604 21.2557 300.604 18.4943C300.604 15.7557 300.166 13.4318 299.291 11.5227C298.428 9.61364 297.138 8.16477 295.422 7.17614C293.706 6.1875 291.575 5.69318 289.03 5.69318H282.962V31.3977ZM336.339 36H325.038V1.09091H336.697C340.118 1.09091 343.055 1.78977 345.51 3.1875C347.964 4.57386 349.845 6.56818 351.152 9.17045C352.47 11.7614 353.129 14.8693 353.129 18.4943C353.129 22.1307 352.464 25.2557 351.135 27.8693C349.817 30.483 347.908 32.4943 345.408 33.9034C342.908 35.3011 339.885 36 336.339 36ZM330.305 31.3977H336.05C338.709 31.3977 340.919 30.8977 342.68 29.8977C344.442 28.8864 345.76 27.4261 346.635 25.517C347.51 23.5966 347.947 21.2557 347.947 18.4943C347.947 15.7557 347.51 13.4318 346.635 11.5227C345.771 9.61364 344.482 8.16477 342.766 7.17614C341.05 6.1875 338.919 5.69318 336.374 5.69318H330.305V31.3977ZM359.679 36V1.09091H381.565V5.625H364.946V16.2614H380.423V20.7784H364.946V31.4659H381.77V36H359.679ZM407.641 10.2614C407.459 8.64773 406.709 7.39773 405.391 6.51136C404.072 5.61364 402.413 5.16477 400.413 5.16477C398.982 5.16477 397.743 5.39205 396.697 5.84659C395.652 6.28977 394.839 6.90341 394.26 7.6875C393.692 8.46023 393.408 9.34091 393.408 10.3295C393.408 11.1591 393.601 11.875 393.987 12.4773C394.385 13.0795 394.902 13.5852 395.538 13.9943C396.186 14.392 396.879 14.7273 397.618 15C398.357 15.2614 399.067 15.4773 399.749 15.6477L403.158 16.5341C404.271 16.8068 405.413 17.1761 406.584 17.642C407.754 18.108 408.839 18.7216 409.839 19.483C410.839 20.2443 411.646 21.1875 412.26 22.3125C412.885 23.4375 413.197 24.7841 413.197 26.3523C413.197 28.3295 412.686 30.0852 411.663 31.6193C410.652 33.1534 409.18 34.3636 407.249 35.25C405.328 36.1364 403.004 36.5795 400.277 36.5795C397.663 36.5795 395.402 36.1648 393.493 35.3352C391.584 34.5057 390.089 33.3295 389.01 31.8068C387.93 30.2727 387.334 28.4545 387.22 26.3523H392.504C392.607 27.6136 393.016 28.6648 393.732 29.5057C394.459 30.3352 395.385 30.9545 396.51 31.3636C397.646 31.7614 398.891 31.9602 400.243 31.9602C401.732 31.9602 403.055 31.7273 404.214 31.2614C405.385 30.7841 406.305 30.125 406.976 29.2841C407.646 28.4318 407.982 27.4375 407.982 26.3011C407.982 25.267 407.686 24.4205 407.095 23.7614C406.516 23.1023 405.726 22.5568 404.726 22.125C403.737 21.6932 402.618 21.3125 401.368 20.983L397.243 19.858C394.447 19.0966 392.232 17.9773 390.595 16.5C388.97 15.0227 388.158 13.0682 388.158 10.6364C388.158 8.625 388.703 6.86932 389.794 5.36932C390.885 3.86932 392.362 2.70454 394.226 1.875C396.089 1.03409 398.192 0.613635 400.533 0.613635C402.896 0.613635 404.982 1.02841 406.788 1.85795C408.607 2.6875 410.038 3.82955 411.084 5.28409C412.129 6.72727 412.675 8.38636 412.72 10.2614H407.641ZM424.759 1.09091V36H419.491V1.09091H424.759ZM456.054 12.1193C455.724 11.0852 455.281 10.1591 454.724 9.34091C454.179 8.51136 453.526 7.80682 452.764 7.22727C452.003 6.63636 451.134 6.1875 450.156 5.88068C449.19 5.57386 448.128 5.42045 446.969 5.42045C445.003 5.42045 443.23 5.92614 441.651 6.9375C440.071 7.94886 438.821 9.43182 437.901 11.3864C436.991 13.3295 436.537 15.7102 436.537 18.5284C436.537 21.358 436.997 23.75 437.918 25.7045C438.838 27.6591 440.099 29.142 441.702 30.1534C443.304 31.1648 445.128 31.6705 447.173 31.6705C449.071 31.6705 450.724 31.2841 452.134 30.5114C453.554 29.7386 454.651 28.6477 455.423 27.2386C456.207 25.8182 456.599 24.1477 456.599 22.2273L457.963 22.483H447.974V18.1364H461.696V22.108C461.696 25.0398 461.071 27.5852 459.821 29.7443C458.582 31.892 456.866 33.5511 454.673 34.7216C452.491 35.892 449.991 36.4773 447.173 36.4773C444.014 36.4773 441.241 35.75 438.855 34.2955C436.48 32.8409 434.628 30.7784 433.298 28.108C431.969 25.4261 431.304 22.2443 431.304 18.5625C431.304 15.7784 431.69 13.2784 432.463 11.0625C433.236 8.84659 434.321 6.96591 435.719 5.42045C437.128 3.86364 438.781 2.67614 440.679 1.85795C442.588 1.02841 444.673 0.613635 446.935 0.613635C448.821 0.613635 450.577 0.892044 452.202 1.44886C453.838 2.00568 455.293 2.79545 456.565 3.81818C457.849 4.84091 458.912 6.05682 459.753 7.46591C460.594 8.86364 461.162 10.4148 461.457 12.1193H456.054ZM496.558 1.09091V36H491.717L473.973 10.3977H473.649V36H468.382V1.09091H473.257L491.018 26.7273H491.342V1.09091H496.558ZM504.241 36V1.09091H526.128V5.625H509.509V16.2614H524.986V20.7784H509.509V31.4659H526.332V36H504.241ZM533.163 36V1.09091H545.607C548.311 1.09091 550.555 1.55682 552.339 2.48864C554.135 3.42045 555.476 4.71023 556.362 6.35795C557.249 7.99432 557.692 9.88636 557.692 12.0341C557.692 14.1705 557.243 16.0511 556.345 17.6761C555.459 19.2898 554.118 20.5455 552.322 21.4432C550.538 22.3409 548.294 22.7898 545.589 22.7898H536.163V18.2557H545.112C546.817 18.2557 548.203 18.0114 549.271 17.5227C550.351 17.0341 551.141 16.3239 551.641 15.392C552.141 14.4602 552.391 13.3409 552.391 12.0341C552.391 10.7159 552.135 9.57386 551.624 8.60795C551.124 7.64204 550.334 6.90341 549.254 6.39205C548.186 5.86932 546.783 5.60795 545.044 5.60795H538.43V36H533.163ZM550.396 20.25L559.021 36H553.021L544.567 20.25H550.396ZM567.05 36.3239C566.118 36.3239 565.317 35.9943 564.646 35.3352C563.976 34.6648 563.641 33.858 563.641 32.9148C563.641 31.983 563.976 31.1875 564.646 30.5284C565.317 29.858 566.118 29.5227 567.05 29.5227C567.982 29.5227 568.783 29.858 569.453 30.5284C570.124 31.1875 570.459 31.983 570.459 32.9148C570.459 33.5398 570.3 34.1136 569.982 34.6364C569.675 35.1477 569.266 35.5568 568.754 35.8636C568.243 36.1705 567.675 36.3239 567.05 36.3239ZM593.295 1.09091V13.517H589.068V1.09091H593.295ZM602.057 1.09091V13.517H597.83V1.09091H602.057ZM609.007 36V1.09091H621.45C624.166 1.09091 626.416 1.58523 628.2 2.57386C629.984 3.5625 631.32 4.91477 632.206 6.63068C633.092 8.33523 633.536 10.2557 633.536 12.392C633.536 14.5398 633.087 16.4716 632.189 18.1875C631.303 19.892 629.962 21.2443 628.166 22.2443C626.382 23.233 624.138 23.7273 621.433 23.7273H612.876V19.2614H620.956C622.672 19.2614 624.064 18.9659 625.132 18.375C626.2 17.7727 626.984 16.9545 627.484 15.9205C627.984 14.8864 628.234 13.7102 628.234 12.392C628.234 11.0739 627.984 9.90341 627.484 8.88068C626.984 7.85795 626.195 7.05682 625.115 6.47727C624.047 5.89773 622.638 5.60795 620.888 5.60795H614.274V36H609.007ZM639.71 36V1.09091H661.597V5.625H644.977V16.2614H660.455V20.7784H644.977V31.4659H661.801V36H639.71ZM668.632 36V1.09091H681.075C683.78 1.09091 686.024 1.55682 687.808 2.48864C689.604 3.42045 690.945 4.71023 691.831 6.35795C692.717 7.99432 693.161 9.88636 693.161 12.0341C693.161 14.1705 692.712 16.0511 691.814 17.6761C690.928 19.2898 689.587 20.5455 687.791 21.4432C686.007 22.3409 683.763 22.7898 681.058 22.7898H671.632V18.2557H680.581C682.286 18.2557 683.672 18.0114 684.74 17.5227C685.82 17.0341 686.609 16.3239 687.109 15.392C687.609 14.4602 687.859 13.3409 687.859 12.0341C687.859 10.7159 687.604 9.57386 687.092 8.60795C686.592 7.64204 685.803 6.90341 684.723 6.39205C683.655 5.86932 682.251 5.60795 680.513 5.60795H673.899V36H668.632ZM685.865 20.25L694.49 36H688.49L680.036 20.25H685.865ZM699.57 36V1.09091H721.217V5.625H704.837V16.2614H719.666V20.7784H704.837V36H699.57ZM727.695 36V1.09091H749.581V5.625H732.962V16.2614H748.439V20.7784H732.962V31.4659H749.786V36H727.695ZM785.611 12.4432H780.293C780.088 11.3068 779.707 10.3068 779.151 9.44318C778.594 8.57955 777.912 7.84659 777.105 7.24432C776.298 6.64204 775.395 6.1875 774.395 5.88068C773.406 5.57386 772.355 5.42045 771.241 5.42045C769.23 5.42045 767.429 5.92614 765.838 6.9375C764.259 7.94886 763.009 9.43182 762.088 11.3864C761.179 13.3409 760.724 15.7273 760.724 18.5455C760.724 21.3864 761.179 23.7841 762.088 25.7386C763.009 27.6932 764.264 29.1705 765.855 30.1705C767.446 31.1705 769.236 31.6705 771.224 31.6705C772.327 31.6705 773.372 31.5227 774.361 31.2273C775.361 30.9205 776.264 30.4716 777.071 29.8807C777.878 29.2898 778.56 28.5682 779.116 27.7159C779.685 26.8523 780.077 25.8636 780.293 24.75L785.611 24.767C785.327 26.483 784.776 28.0625 783.957 29.5057C783.151 30.9375 782.111 32.1761 780.838 33.2216C779.577 34.2557 778.134 35.0568 776.509 35.625C774.884 36.1932 773.111 36.4773 771.19 36.4773C768.168 36.4773 765.474 35.7614 763.111 34.3295C760.747 32.8864 758.884 30.8239 757.52 28.142C756.168 25.4602 755.491 22.2614 755.491 18.5455C755.491 14.8182 756.173 11.6193 757.537 8.94886C758.901 6.26704 760.764 4.21023 763.128 2.77841C765.491 1.33523 768.179 0.613635 771.19 0.613635C773.043 0.613635 774.77 0.880681 776.372 1.41477C777.986 1.9375 779.435 2.71023 780.719 3.73295C782.003 4.74432 783.065 5.98295 783.906 7.44886C784.747 8.90341 785.315 10.5682 785.611 12.4432ZM790.192 5.625V1.09091H817.209V5.625H806.317V36H801.067V5.625H790.192ZM827.76 31.2273L827.504 33.0852C827.334 34.4489 827.044 35.8693 826.635 37.3466C826.237 38.8352 825.822 40.2159 825.391 41.4886C824.97 42.7614 824.624 43.7727 824.351 44.5227H820.737C820.885 43.8182 821.089 42.8636 821.351 41.6591C821.612 40.4659 821.868 39.1307 822.118 37.6534C822.368 36.1761 822.555 34.6705 822.68 33.1364L822.851 31.2273H827.76ZM850.456 36H844.865L857.428 1.09091H863.513L876.075 36H870.484L860.615 7.43182H860.342L850.456 36ZM851.393 22.3295H869.53V26.7614H851.393V22.3295ZM881.116 36V1.09091H893.56C896.276 1.09091 898.526 1.58523 900.31 2.57386C902.094 3.5625 903.429 4.91477 904.315 6.63068C905.202 8.33523 905.645 10.2557 905.645 12.392C905.645 14.5398 905.196 16.4716 904.298 18.1875C903.412 19.892 902.071 21.2443 900.276 22.2443C898.491 23.233 896.247 23.7273 893.543 23.7273H884.986V19.2614H893.065C894.781 19.2614 896.173 18.9659 897.241 18.375C898.31 17.7727 899.094 16.9545 899.594 15.9205C900.094 14.8864 900.344 13.7102 900.344 12.392C900.344 11.0739 900.094 9.90341 899.594 8.88068C899.094 7.85795 898.304 7.05682 897.224 6.47727C896.156 5.89773 894.747 5.60795 892.997 5.60795H886.384V36H881.116ZM911.82 36V1.09091H924.263C926.979 1.09091 929.229 1.58523 931.013 2.57386C932.797 3.5625 934.132 4.91477 935.018 6.63068C935.905 8.33523 936.348 10.2557 936.348 12.392C936.348 14.5398 935.899 16.4716 935.001 18.1875C934.115 19.892 932.774 21.2443 930.979 22.2443C929.195 23.233 926.95 23.7273 924.246 23.7273H915.689V19.2614H923.768C925.484 19.2614 926.876 18.9659 927.945 18.375C929.013 17.7727 929.797 16.9545 930.297 15.9205C930.797 14.8864 931.047 13.7102 931.047 12.392C931.047 11.0739 930.797 9.90341 930.297 8.88068C929.797 7.85795 929.007 7.05682 927.928 6.47727C926.859 5.89773 925.45 5.60795 923.7 5.60795H917.087V36H911.82ZM942.523 36V1.09091H954.966C957.67 1.09091 959.915 1.55682 961.699 2.48864C963.494 3.42045 964.835 4.71023 965.722 6.35795C966.608 7.99432 967.051 9.88636 967.051 12.0341C967.051 14.1705 966.602 16.0511 965.705 17.6761C964.818 19.2898 963.477 20.5455 961.682 21.4432C959.898 22.3409 957.653 22.7898 954.949 22.7898H945.523V18.2557H954.472C956.176 18.2557 957.563 18.0114 958.631 17.5227C959.71 17.0341 960.5 16.3239 961 15.392C961.5 14.4602 961.75 13.3409 961.75 12.0341C961.75 10.7159 961.494 9.57386 960.983 8.60795C960.483 7.64204 959.693 6.90341 958.614 6.39205C957.545 5.86932 956.142 5.60795 954.403 5.60795H947.79V36H942.523ZM959.756 20.25L968.381 36H962.381L953.926 20.25H959.756ZM973.46 36V1.09091H995.347V5.625H978.727V16.2614H994.205V20.7784H978.727V31.4659H995.551V36H973.46ZM1031.38 12.4432H1026.06C1025.85 11.3068 1025.47 10.3068 1024.92 9.44318C1024.36 8.57955 1023.68 7.84659 1022.87 7.24432C1022.06 6.64204 1021.16 6.1875 1020.16 5.88068C1019.17 5.57386 1018.12 5.42045 1017.01 5.42045C1015 5.42045 1013.19 5.92614 1011.6 6.9375C1010.02 7.94886 1008.77 9.43182 1007.85 11.3864C1006.94 13.3409 1006.49 15.7273 1006.49 18.5455C1006.49 21.3864 1006.94 23.7841 1007.85 25.7386C1008.77 27.6932 1010.03 29.1705 1011.62 30.1705C1013.21 31.1705 1015 31.6705 1016.99 31.6705C1018.09 31.6705 1019.14 31.5227 1020.13 31.2273C1021.13 30.9205 1022.03 30.4716 1022.84 29.8807C1023.64 29.2898 1024.33 28.5682 1024.88 27.7159C1025.45 26.8523 1025.84 25.8636 1026.06 24.75L1031.38 24.767C1031.09 26.483 1030.54 28.0625 1029.72 29.5057C1028.92 30.9375 1027.88 32.1761 1026.6 33.2216C1025.34 34.2557 1023.9 35.0568 1022.27 35.625C1020.65 36.1932 1018.88 36.4773 1016.96 36.4773C1013.93 36.4773 1011.24 35.7614 1008.88 34.3295C1006.51 32.8864 1004.65 30.8239 1003.29 28.142C1001.93 25.4602 1001.26 22.2614 1001.26 18.5455C1001.26 14.8182 1001.94 11.6193 1003.3 8.94886C1004.67 6.26704 1006.53 4.21023 1008.89 2.77841C1011.26 1.33523 1013.94 0.613635 1016.96 0.613635C1018.81 0.613635 1020.54 0.880681 1022.14 1.41477C1023.75 1.9375 1025.2 2.71023 1026.48 3.73295C1027.77 4.74432 1028.83 5.98295 1029.67 7.44886C1030.51 8.90341 1031.08 10.5682 1031.38 12.4432ZM1042.95 1.09091V36H1037.68V1.09091H1042.95ZM1053.57 36H1047.97L1060.54 1.09091H1066.62L1079.18 36H1073.59L1063.72 7.43182H1063.45L1053.57 36ZM1054.5 22.3295H1072.64V26.7614H1054.5V22.3295ZM1078.38 5.625V1.09091H1105.4V5.625H1094.5V36H1089.25V5.625H1078.38ZM1111.37 36V1.09091H1133.25V5.625H1116.63V16.2614H1132.11V20.7784H1116.63V31.4659H1133.46V36H1111.37ZM1155.94 36H1150.35L1162.91 1.09091H1169L1181.56 36H1175.97L1166.1 7.43182H1165.83L1155.94 36ZM1156.88 22.3295H1175.01V26.7614H1156.88V22.3295ZM1186.6 36V1.09091H1191.87V31.4659H1207.69V36H1186.6ZM1213.69 36V1.09091H1218.96V31.4659H1234.78V36H1213.69ZM1251.77 5.625V1.09091H1278.79V5.625H1267.89V36H1262.64V5.625H1251.77ZM1284.76 36V1.09091H1290.02V16.2614H1307.43V1.09091H1312.71V36H1307.43V20.7784H1290.02V36H1284.76ZM1320.38 36V1.09091H1342.27V5.625H1325.65V16.2614H1341.13V20.7784H1325.65V31.4659H1342.47V36H1320.38ZM1368.84 36L1359.16 1.09091H1364.7L1371.5 28.125H1371.83L1378.9 1.09091H1384.39L1391.46 28.142H1391.79L1398.57 1.09091H1404.13L1394.43 36H1389.13L1381.78 9.85227H1381.51L1374.16 36H1368.84ZM1437.52 18.5455C1437.52 22.2727 1436.84 25.4773 1435.47 28.1591C1434.11 30.8295 1432.24 32.8864 1429.87 34.3295C1427.5 35.7614 1424.81 36.4773 1421.8 36.4773C1418.78 36.4773 1416.08 35.7614 1413.71 34.3295C1411.34 32.8864 1409.48 30.8239 1408.12 28.142C1406.75 25.4602 1406.07 22.2614 1406.07 18.5455C1406.07 14.8182 1406.75 11.6193 1408.12 8.94886C1409.48 6.26704 1411.34 4.21023 1413.71 2.77841C1416.08 1.33523 1418.78 0.613635 1421.8 0.613635C1424.81 0.613635 1427.5 1.33523 1429.87 2.77841C1432.24 4.21023 1434.11 6.26704 1435.47 8.94886C1436.84 11.6193 1437.52 14.8182 1437.52 18.5455ZM1432.3 18.5455C1432.3 15.7045 1431.84 13.3125 1430.92 11.3693C1430.01 9.41477 1428.76 7.9375 1427.17 6.9375C1425.59 5.92614 1423.8 5.42045 1421.8 5.42045C1419.79 5.42045 1418 5.92614 1416.42 6.9375C1414.84 7.9375 1413.59 9.41477 1412.67 11.3693C1411.76 13.3125 1411.3 15.7045 1411.3 18.5455C1411.3 21.3864 1411.76 23.7841 1412.67 25.7386C1413.59 27.6818 1414.84 29.1591 1416.42 30.1705C1418 31.1705 1419.79 31.6705 1421.8 31.6705C1423.8 31.6705 1425.59 31.1705 1427.17 30.1705C1428.76 29.1591 1430.01 27.6818 1430.92 25.7386C1431.84 23.7841 1432.3 21.3864 1432.3 18.5455ZM1444.09 36V1.09091H1456.53C1459.23 1.09091 1461.48 1.55682 1463.26 2.48864C1465.06 3.42045 1466.4 4.71023 1467.28 6.35795C1468.17 7.99432 1468.61 9.88636 1468.61 12.0341C1468.61 14.1705 1468.16 16.0511 1467.27 17.6761C1466.38 19.2898 1465.04 20.5455 1463.24 21.4432C1461.46 22.3409 1459.22 22.7898 1456.51 22.7898H1447.09V18.2557H1456.03C1457.74 18.2557 1459.13 18.0114 1460.19 17.5227C1461.27 17.0341 1462.06 16.3239 1462.56 15.392C1463.06 14.4602 1463.31 13.3409 1463.31 12.0341C1463.31 10.7159 1463.06 9.57386 1462.55 8.60795C1462.05 7.64204 1461.26 6.90341 1460.18 6.39205C1459.11 5.86932 1457.7 5.60795 1455.97 5.60795H1449.35V36H1444.09ZM1461.32 20.25L1469.94 36H1463.94L1455.49 20.25H1461.32ZM1475.02 36V1.09091H1480.29V17.7614H1480.72L1495.36 1.09091H1501.99L1487.91 16.8068L1502.04 36H1495.7L1484.41 20.4034L1480.29 25.142V36H1475.02ZM1530.9 36H1519.6V1.09091H1531.26C1534.68 1.09091 1537.62 1.78977 1540.07 3.1875C1542.53 4.57386 1544.41 6.56818 1545.71 9.17045C1547.03 11.7614 1547.69 14.8693 1547.69 18.4943C1547.69 22.1307 1547.03 25.2557 1545.7 27.8693C1544.38 30.483 1542.47 32.4943 1539.97 33.9034C1537.47 35.3011 1534.45 36 1530.9 36ZM1524.87 31.3977H1530.61C1533.27 31.3977 1535.48 30.8977 1537.24 29.8977C1539 28.8864 1540.32 27.4261 1541.2 25.517C1542.07 23.5966 1542.51 21.2557 1542.51 18.4943C1542.51 15.7557 1542.07 13.4318 1541.2 11.5227C1540.33 9.61364 1539.04 8.16477 1537.33 7.17614C1535.61 6.1875 1533.48 5.69318 1530.94 5.69318H1524.87V31.3977ZM1584.57 18.5455C1584.57 22.2727 1583.88 25.4773 1582.52 28.1591C1581.16 30.8295 1579.29 32.8864 1576.91 34.3295C1574.55 35.7614 1571.86 36.4773 1568.85 36.4773C1565.83 36.4773 1563.13 35.7614 1560.75 34.3295C1558.39 32.8864 1556.53 30.8239 1555.16 28.142C1553.8 25.4602 1553.12 22.2614 1553.12 18.5455C1553.12 14.8182 1553.8 11.6193 1555.16 8.94886C1556.53 6.26704 1558.39 4.21023 1560.75 2.77841C1563.13 1.33523 1565.83 0.613635 1568.85 0.613635C1571.86 0.613635 1574.55 1.33523 1576.91 2.77841C1579.29 4.21023 1581.16 6.26704 1582.52 8.94886C1583.88 11.6193 1584.57 14.8182 1584.57 18.5455ZM1579.35 18.5455C1579.35 15.7045 1578.89 13.3125 1577.97 11.3693C1577.06 9.41477 1575.81 7.9375 1574.22 6.9375C1572.64 5.92614 1570.85 5.42045 1568.85 5.42045C1566.84 5.42045 1565.04 5.92614 1563.46 6.9375C1561.88 7.9375 1560.63 9.41477 1559.71 11.3693C1558.8 13.3125 1558.35 15.7045 1558.35 18.5455C1558.35 21.3864 1558.8 23.7841 1559.71 25.7386C1560.63 27.6818 1561.88 29.1591 1563.46 30.1705C1565.04 31.1705 1566.84 31.6705 1568.85 31.6705C1570.85 31.6705 1572.64 31.1705 1574.22 30.1705C1575.81 29.1591 1577.06 27.6818 1577.97 25.7386C1578.89 23.7841 1579.35 21.3864 1579.35 18.5455ZM1619.31 1.09091V36H1614.47L1596.72 10.3977H1596.4V36H1591.13V1.09091H1596.01L1613.77 26.7273H1614.09V1.09091H1619.31ZM1626.99 36V1.09091H1648.88V5.625H1632.26V16.2614H1647.74V20.7784H1632.26V31.4659H1649.08V36H1626.99ZM1658.86 36.3239C1657.93 36.3239 1657.13 35.9943 1656.46 35.3352C1655.79 34.6648 1655.45 33.858 1655.45 32.9148C1655.45 31.983 1655.79 31.1875 1656.46 30.5284C1657.13 29.858 1657.93 29.5227 1658.86 29.5227C1659.79 29.5227 1660.6 29.858 1661.27 30.5284C1661.94 31.1875 1662.27 31.983 1662.27 32.9148C1662.27 33.5398 1662.11 34.1136 1661.79 34.6364C1661.49 35.1477 1661.08 35.5568 1660.57 35.8636C1660.06 36.1705 1659.49 36.3239 1658.86 36.3239ZM1668.75 1.09091V13.517H1664.52V1.09091H1668.75ZM1677.51 1.09091V13.517H1673.28V1.09091H1677.51ZM1741.33 16.3466V20.7614H1693.33V16.3466H1741.33ZM1757.87 1.09091H1764.26L1775.37 28.2273H1775.78L1786.89 1.09091H1793.29V36H1788.28V10.7386H1787.95L1777.66 35.9489H1773.5L1763.2 10.7216H1762.88V36H1757.87V1.09091ZM1803.89 36H1798.3L1810.87 1.09091H1816.95L1829.51 36H1823.92L1814.05 7.43182H1813.78L1803.89 36ZM1804.83 22.3295H1822.97V26.7614H1804.83V22.3295ZM1834.55 36V1.09091H1847C1849.7 1.09091 1851.95 1.55682 1853.73 2.48864C1855.53 3.42045 1856.87 4.71023 1857.75 6.35795C1858.64 7.99432 1859.08 9.88636 1859.08 12.0341C1859.08 14.1705 1858.63 16.0511 1857.74 17.6761C1856.85 19.2898 1855.51 20.5455 1853.71 21.4432C1851.93 22.3409 1849.68 22.7898 1846.98 22.7898H1837.55V18.2557H1846.5C1848.21 18.2557 1849.59 18.0114 1850.66 17.5227C1851.74 17.0341 1852.53 16.3239 1853.03 15.392C1853.53 14.4602 1853.78 13.3409 1853.78 12.0341C1853.78 10.7159 1853.53 9.57386 1853.01 8.60795C1852.51 7.64204 1851.72 6.90341 1850.64 6.39205C1849.58 5.86932 1848.17 5.60795 1846.43 5.60795H1839.82V36H1834.55ZM1851.79 20.25L1860.41 36H1854.41L1845.96 20.25H1851.79ZM1878.33 24.6818H1883.51L1887.16 29.4375L1888.88 31.5511L1894.69 39.1364H1889.3L1885.42 34.0739L1884.09 32.233L1878.33 24.6818ZM1895.82 18.5455C1895.82 22.2727 1895.13 25.4773 1893.77 28.1591C1892.41 30.8295 1890.54 32.8864 1888.16 34.3295C1885.8 35.7614 1883.11 36.4773 1880.1 36.4773C1877.08 36.4773 1874.38 35.7614 1872 34.3295C1869.64 32.8864 1867.78 30.8239 1866.41 28.142C1865.05 25.4602 1864.37 22.2614 1864.37 18.5455C1864.37 14.8182 1865.05 11.6193 1866.41 8.94886C1867.78 6.26704 1869.64 4.21023 1872 2.77841C1874.38 1.33523 1877.08 0.613635 1880.1 0.613635C1883.11 0.613635 1885.8 1.33523 1888.16 2.77841C1890.54 4.21023 1892.41 6.26704 1893.77 8.94886C1895.13 11.6193 1895.82 14.8182 1895.82 18.5455ZM1890.6 18.5455C1890.6 15.7045 1890.14 13.3125 1889.22 11.3693C1888.31 9.41477 1887.06 7.9375 1885.47 6.9375C1883.89 5.92614 1882.1 5.42045 1880.1 5.42045C1878.09 5.42045 1876.29 5.92614 1874.71 6.9375C1873.13 7.9375 1871.88 9.41477 1870.96 11.3693C1870.05 13.3125 1869.6 15.7045 1869.6 18.5455C1869.6 21.3864 1870.05 23.7841 1870.96 25.7386C1871.88 27.6818 1873.13 29.1591 1874.71 30.1705C1876.29 31.1705 1878.09 31.6705 1880.1 31.6705C1882.1 31.6705 1883.89 31.1705 1885.47 30.1705C1887.06 29.1591 1888.31 27.6818 1889.22 25.7386C1890.14 23.7841 1890.6 21.3864 1890.6 18.5455ZM1906.4 31.2273L1906.14 33.0852C1905.97 34.4489 1905.68 35.8693 1905.28 37.3466C1904.88 38.8352 1904.46 40.2159 1904.03 41.4886C1903.61 42.7614 1903.26 43.7727 1902.99 44.5227H1899.38C1899.53 43.8182 1899.73 42.8636 1899.99 41.6591C1900.25 40.4659 1900.51 39.1307 1900.76 37.6534C1901.01 36.1761 1901.2 34.6705 1901.32 33.1364L1901.49 31.2273H1906.4ZM1926.15 36V1.09091H1938.59C1941.31 1.09091 1943.56 1.58523 1945.34 2.57386C1947.13 3.5625 1948.46 4.91477 1949.35 6.63068C1950.23 8.33523 1950.68 10.2557 1950.68 12.392C1950.68 14.5398 1950.23 16.4716 1949.33 18.1875C1948.44 19.892 1947.1 21.2443 1945.31 22.2443C1943.52 23.233 1941.28 23.7273 1938.57 23.7273H1930.02V19.2614H1938.1C1939.81 19.2614 1941.2 18.9659 1942.27 18.375C1943.34 17.7727 1944.12 16.9545 1944.62 15.9205C1945.12 14.8864 1945.38 13.7102 1945.38 12.392C1945.38 11.0739 1945.12 9.90341 1944.62 8.88068C1944.12 7.85795 1943.34 7.05682 1942.26 6.47727C1941.19 5.89773 1939.78 5.60795 1938.03 5.60795H1931.41V36H1926.15ZM1956.85 36V1.09091H1969.29C1972 1.09091 1974.24 1.55682 1976.03 2.48864C1977.82 3.42045 1979.16 4.71023 1980.05 6.35795C1980.94 7.99432 1981.38 9.88636 1981.38 12.0341C1981.38 14.1705 1980.93 16.0511 1980.03 17.6761C1979.15 19.2898 1977.81 20.5455 1976.01 21.4432C1974.23 22.3409 1971.98 22.7898 1969.28 22.7898H1959.85V18.2557H1968.8C1970.5 18.2557 1971.89 18.0114 1972.96 17.5227C1974.04 17.0341 1974.83 16.3239 1975.33 15.392C1975.83 14.4602 1976.08 13.3409 1976.08 12.0341C1976.08 10.7159 1975.82 9.57386 1975.31 8.60795C1974.81 7.64204 1974.02 6.90341 1972.94 6.39205C1971.87 5.86932 1970.47 5.60795 1968.73 5.60795H1962.12V36H1956.85ZM1974.08 20.25L1982.71 36H1976.71L1968.25 20.25H1974.08ZM2018.11 18.5455C2018.11 22.2727 2017.43 25.4773 2016.07 28.1591C2014.7 30.8295 2012.83 32.8864 2010.46 34.3295C2008.1 35.7614 2005.41 36.4773 2002.4 36.4773C1999.37 36.4773 1996.67 35.7614 1994.3 34.3295C1991.94 32.8864 1990.07 30.8239 1988.71 28.142C1987.35 25.4602 1986.66 22.2614 1986.66 18.5455C1986.66 14.8182 1987.35 11.6193 1988.71 8.94886C1990.07 6.26704 1991.94 4.21023 1994.3 2.77841C1996.67 1.33523 1999.37 0.613635 2002.4 0.613635C2005.41 0.613635 2008.1 1.33523 2010.46 2.77841C2012.83 4.21023 2014.7 6.26704 2016.07 8.94886C2017.43 11.6193 2018.11 14.8182 2018.11 18.5455ZM2012.9 18.5455C2012.9 15.7045 2012.44 13.3125 2011.52 11.3693C2010.61 9.41477 2009.36 7.9375 2007.77 6.9375C2006.19 5.92614 2004.4 5.42045 2002.4 5.42045C2000.38 5.42045 1998.59 5.92614 1997.01 6.9375C1995.43 7.9375 1994.18 9.41477 1993.26 11.3693C1992.35 13.3125 1991.9 15.7045 1991.9 18.5455C1991.9 21.3864 1992.35 23.7841 1993.26 25.7386C1994.18 27.6818 1995.43 29.1591 1997.01 30.1705C1998.59 31.1705 2000.38 31.6705 2002.4 31.6705C2004.4 31.6705 2006.19 31.1705 2007.77 30.1705C2009.36 29.1591 2010.61 27.6818 2011.52 25.7386C2012.44 23.7841 2012.9 21.3864 2012.9 18.5455ZM2038.25 1.09091H2043.5V25.8409C2043.5 28.0795 2043.05 29.9943 2042.17 31.5852C2041.29 33.1761 2040.06 34.392 2038.47 35.233C2036.88 36.0625 2035.01 36.4773 2032.88 36.4773C2030.91 36.4773 2029.14 36.1193 2027.58 35.4034C2026.02 34.6875 2024.79 33.6477 2023.88 32.2841C2022.98 30.9091 2022.53 29.2386 2022.53 27.2727H2027.76C2027.76 28.2386 2027.99 29.0739 2028.43 29.7784C2028.88 30.483 2029.5 31.0341 2030.29 31.4318C2031.08 31.8182 2031.99 32.0114 2033.01 32.0114C2034.13 32.0114 2035.07 31.7784 2035.84 31.3125C2036.63 30.8352 2037.22 30.1364 2037.63 29.2159C2038.04 28.2955 2038.25 27.1705 2038.25 25.8409V1.09091ZM2051.16 36V1.09091H2073.05V5.625H2056.43V16.2614H2071.91V20.7784H2056.43V31.4659H2073.25V36H2051.16ZM2109.08 12.4432H2103.76C2103.56 11.3068 2103.18 10.3068 2102.62 9.44318C2102.06 8.57955 2101.38 7.84659 2100.57 7.24432C2099.77 6.64204 2098.86 6.1875 2097.86 5.88068C2096.88 5.57386 2095.82 5.42045 2094.71 5.42045C2092.7 5.42045 2090.9 5.92614 2089.31 6.9375C2087.73 7.94886 2086.48 9.43182 2085.56 11.3864C2084.65 13.3409 2084.19 15.7273 2084.19 18.5455C2084.19 21.3864 2084.65 23.7841 2085.56 25.7386C2086.48 27.6932 2087.73 29.1705 2089.32 30.1705C2090.91 31.1705 2092.7 31.6705 2094.69 31.6705C2095.8 31.6705 2096.84 31.5227 2097.83 31.2273C2098.83 30.9205 2099.73 30.4716 2100.54 29.8807C2101.35 29.2898 2102.03 28.5682 2102.59 27.7159C2103.15 26.8523 2103.55 25.8636 2103.76 24.75L2109.08 24.767C2108.8 26.483 2108.24 28.0625 2107.43 29.5057C2106.62 30.9375 2105.58 32.1761 2104.31 33.2216C2103.05 34.2557 2101.6 35.0568 2099.98 35.625C2098.35 36.1932 2096.58 36.4773 2094.66 36.4773C2091.64 36.4773 2088.94 35.7614 2086.58 34.3295C2084.22 32.8864 2082.35 30.8239 2080.99 28.142C2079.64 25.4602 2078.96 22.2614 2078.96 18.5455C2078.96 14.8182 2079.64 11.6193 2081.01 8.94886C2082.37 6.26704 2084.23 4.21023 2086.6 2.77841C2088.96 1.33523 2091.65 0.613635 2094.66 0.613635C2096.51 0.613635 2098.24 0.880681 2099.84 1.41477C2101.45 1.9375 2102.9 2.71023 2104.19 3.73295C2105.47 4.74432 2106.53 5.98295 2107.38 7.44886C2108.22 8.90341 2108.78 10.5682 2109.08 12.4432ZM2113.66 5.625V1.09091H2140.68V5.625H2129.79V36H2124.54V5.625H2113.66ZM2162.4 1.09091L2172.12 29.5227H2172.51L2182.23 1.09091H2187.92L2175.36 36H2169.27L2156.71 1.09091H2162.4ZM2198.23 1.09091V36H2192.96V1.09091H2198.23ZM2211.16 1.09091V36H2205.9V1.09091H2211.16ZM2260.53 12.4432H2255.21C2255.01 11.3068 2254.63 10.3068 2254.07 9.44318C2253.52 8.57955 2252.83 7.84659 2252.03 7.24432C2251.22 6.64204 2250.32 6.1875 2249.32 5.88068C2248.33 5.57386 2247.28 5.42045 2246.16 5.42045C2244.15 5.42045 2242.35 5.92614 2240.76 6.9375C2239.18 7.94886 2237.93 9.43182 2237.01 11.3864C2236.1 13.3409 2235.65 15.7273 2235.65 18.5455C2235.65 21.3864 2236.1 23.7841 2237.01 25.7386C2237.93 27.6932 2239.19 29.1705 2240.78 30.1705C2242.37 31.1705 2244.16 31.6705 2246.15 31.6705C2247.25 31.6705 2248.29 31.5227 2249.28 31.2273C2250.28 30.9205 2251.19 30.4716 2251.99 29.8807C2252.8 29.2898 2253.48 28.5682 2254.04 27.7159C2254.61 26.8523 2255 25.8636 2255.21 24.75L2260.53 24.767C2260.25 26.483 2259.7 28.0625 2258.88 29.5057C2258.07 30.9375 2257.03 32.1761 2255.76 33.2216C2254.5 34.2557 2253.06 35.0568 2251.43 35.625C2249.81 36.1932 2248.03 36.4773 2246.11 36.4773C2243.09 36.4773 2240.4 35.7614 2238.03 34.3295C2235.67 32.8864 2233.81 30.8239 2232.44 28.142C2231.09 25.4602 2230.41 22.2614 2230.41 18.5455C2230.41 14.8182 2231.1 11.6193 2232.46 8.94886C2233.82 6.26704 2235.69 4.21023 2238.05 2.77841C2240.41 1.33523 2243.1 0.613635 2246.11 0.613635C2247.96 0.613635 2249.69 0.880681 2251.29 1.41477C2252.91 1.9375 2254.36 2.71023 2255.64 3.73295C2256.92 4.74432 2257.99 5.98295 2258.83 7.44886C2259.67 8.90341 2260.24 10.5682 2260.53 12.4432ZM2297.16 18.5455C2297.16 22.2727 2296.48 25.4773 2295.11 28.1591C2293.75 30.8295 2291.88 32.8864 2289.51 34.3295C2287.14 35.7614 2284.45 36.4773 2281.44 36.4773C2278.42 36.4773 2275.72 35.7614 2273.35 34.3295C2270.98 32.8864 2269.12 30.8239 2267.76 28.142C2266.39 25.4602 2265.71 22.2614 2265.71 18.5455C2265.71 14.8182 2266.39 11.6193 2267.76 8.94886C2269.12 6.26704 2270.98 4.21023 2273.35 2.77841C2275.72 1.33523 2278.42 0.613635 2281.44 0.613635C2284.45 0.613635 2287.14 1.33523 2289.51 2.77841C2291.88 4.21023 2293.75 6.26704 2295.11 8.94886C2296.48 11.6193 2297.16 14.8182 2297.16 18.5455ZM2291.94 18.5455C2291.94 15.7045 2291.48 13.3125 2290.56 11.3693C2289.65 9.41477 2288.4 7.9375 2286.81 6.9375C2285.23 5.92614 2283.44 5.42045 2281.44 5.42045C2279.43 5.42045 2277.64 5.92614 2276.06 6.9375C2274.48 7.9375 2273.23 9.41477 2272.31 11.3693C2271.4 13.3125 2270.94 15.7045 2270.94 18.5455C2270.94 21.3864 2271.4 23.7841 2272.31 25.7386C2273.23 27.6818 2274.48 29.1591 2276.06 30.1705C2277.64 31.1705 2279.43 31.6705 2281.44 31.6705C2283.44 31.6705 2285.23 31.1705 2286.81 30.1705C2288.4 29.1591 2289.65 27.6818 2290.56 25.7386C2291.48 23.7841 2291.94 21.3864 2291.94 18.5455ZM2318.74 16.3295V20.7614H2303.27V16.3295H2318.74ZM2356.27 18.5455C2356.27 22.2727 2355.59 25.4773 2354.22 28.1591C2352.86 30.8295 2350.99 32.8864 2348.62 34.3295C2346.25 35.7614 2343.56 36.4773 2340.55 36.4773C2337.53 36.4773 2334.83 35.7614 2332.46 34.3295C2330.09 32.8864 2328.23 30.8239 2326.87 28.142C2325.5 25.4602 2324.82 22.2614 2324.82 18.5455C2324.82 14.8182 2325.5 11.6193 2326.87 8.94886C2328.23 6.26704 2330.09 4.21023 2332.46 2.77841C2334.83 1.33523 2337.53 0.613635 2340.55 0.613635C2343.56 0.613635 2346.25 1.33523 2348.62 2.77841C2350.99 4.21023 2352.86 6.26704 2354.22 8.94886C2355.59 11.6193 2356.27 14.8182 2356.27 18.5455ZM2351.05 18.5455C2351.05 15.7045 2350.59 13.3125 2349.67 11.3693C2348.76 9.41477 2347.51 7.9375 2345.92 6.9375C2344.34 5.92614 2342.55 5.42045 2340.55 5.42045C2338.54 5.42045 2336.75 5.92614 2335.17 6.9375C2333.59 7.9375 2332.34 9.41477 2331.42 11.3693C2330.51 13.3125 2330.05 15.7045 2330.05 18.5455C2330.05 21.3864 2330.51 23.7841 2331.42 25.7386C2332.34 27.6818 2333.59 29.1591 2335.17 30.1705C2336.75 31.1705 2338.54 31.6705 2340.55 31.6705C2342.55 31.6705 2344.34 31.1705 2345.92 30.1705C2347.51 29.1591 2348.76 27.6818 2349.67 25.7386C2350.59 23.7841 2351.05 21.3864 2351.05 18.5455ZM2369.25 36L2359.57 1.09091H2365.11L2371.91 28.125H2372.23L2379.31 1.09091H2384.79L2391.87 28.142H2392.19L2398.98 1.09091H2404.53L2394.83 36H2389.53L2382.19 9.85227H2381.91L2374.57 36H2369.25ZM2437.51 1.09091V36H2432.67L2414.93 10.3977H2414.6V36H2409.34V1.09091H2414.21L2431.97 26.7273H2432.3V1.09091H2437.51ZM2445.19 36V1.09091H2467.08V5.625H2450.46V16.2614H2465.94V20.7784H2450.46V31.4659H2467.29V36H2445.19ZM2474.12 36V1.09091H2486.56C2489.26 1.09091 2491.51 1.55682 2493.29 2.48864C2495.09 3.42045 2496.43 4.71023 2497.32 6.35795C2498.2 7.99432 2498.64 9.88636 2498.64 12.0341C2498.64 14.1705 2498.2 16.0511 2497.3 17.6761C2496.41 19.2898 2495.07 20.5455 2493.28 21.4432C2491.49 22.3409 2489.25 22.7898 2486.54 22.7898H2477.12V18.2557H2486.07C2487.77 18.2557 2489.16 18.0114 2490.22 17.5227C2491.3 17.0341 2492.09 16.3239 2492.59 15.392C2493.09 14.4602 2493.34 13.3409 2493.34 12.0341C2493.34 10.7159 2493.09 9.57386 2492.58 8.60795C2492.08 7.64204 2491.29 6.90341 2490.21 6.39205C2489.14 5.86932 2487.74 5.60795 2486 5.60795H2479.38V36H2474.12ZM2491.35 20.25L2499.97 36H2493.97L2485.52 20.25H2491.35ZM2508 36.3239C2507.07 36.3239 2506.27 35.9943 2505.6 35.3352C2504.93 34.6648 2504.59 33.858 2504.59 32.9148C2504.59 31.983 2504.93 31.1875 2505.6 30.5284C2506.27 29.858 2507.07 29.5227 2508 29.5227C2508.93 29.5227 2509.74 29.858 2510.41 30.5284C2511.08 31.1875 2511.41 31.983 2511.41 32.9148C2511.41 33.5398 2511.25 34.1136 2510.93 34.6364C2510.63 35.1477 2510.22 35.5568 2509.71 35.8636C2509.2 36.1705 2508.63 36.3239 2508 36.3239ZM2534.25 1.09091V13.517H2530.02V1.09091H2534.25ZM2543.01 1.09091V13.517H2538.78V1.09091H2543.01ZM2549.96 36V1.09091H2555.23V31.4659H2571.05V36H2549.96ZM2582.32 1.09091V36H2577.05V1.09091H2582.32ZM2588.27 5.625V1.09091H2615.29V5.625H2604.39V36H2599.14V5.625H2588.27ZM2621.26 36V1.09091H2643.14V5.625H2626.52V16.2614H2642V20.7784H2626.52V31.4659H2643.35V36H2621.26ZM2650.18 36V1.09091H2662.62C2665.33 1.09091 2667.57 1.55682 2669.36 2.48864C2671.15 3.42045 2672.49 4.71023 2673.38 6.35795C2674.26 7.99432 2674.71 9.88636 2674.71 12.0341C2674.71 14.1705 2674.26 16.0511 2673.36 17.6761C2672.47 19.2898 2671.13 20.5455 2669.34 21.4432C2667.55 22.3409 2665.31 22.7898 2662.61 22.7898H2653.18V18.2557H2662.13C2663.83 18.2557 2665.22 18.0114 2666.29 17.5227C2667.37 17.0341 2668.16 16.3239 2668.66 15.392C2669.16 14.4602 2669.41 13.3409 2669.41 12.0341C2669.41 10.7159 2669.15 9.57386 2668.64 8.60795C2668.14 7.64204 2667.35 6.90341 2666.27 6.39205C2665.2 5.86932 2663.8 5.60795 2662.06 5.60795H2655.45V36H2650.18ZM2667.41 20.25L2676.04 36H2670.04L2661.58 20.25H2667.41ZM2684.07 36H2678.47L2691.04 1.09091H2697.12L2709.68 36H2704.09L2694.22 7.43182H2693.95L2684.07 36ZM2685 22.3295H2703.14V26.7614H2685V22.3295ZM2714.73 36V1.09091H2719.99V31.4659H2735.81V36H2714.73ZM2778.15 12.1193C2777.82 11.0852 2777.38 10.1591 2776.82 9.34091C2776.27 8.51136 2775.62 7.80682 2774.86 7.22727C2774.1 6.63636 2773.23 6.1875 2772.25 5.88068C2771.28 5.57386 2770.22 5.42045 2769.06 5.42045C2767.1 5.42045 2765.32 5.92614 2763.74 6.9375C2762.16 7.94886 2760.91 9.43182 2759.99 11.3864C2759.09 13.3295 2758.63 15.7102 2758.63 18.5284C2758.63 21.358 2759.09 23.75 2760.01 25.7045C2760.93 27.6591 2762.19 29.142 2763.8 30.1534C2765.4 31.1648 2767.22 31.6705 2769.27 31.6705C2771.16 31.6705 2772.82 31.2841 2774.23 30.5114C2775.65 29.7386 2776.74 28.6477 2777.52 27.2386C2778.3 25.8182 2778.69 24.1477 2778.69 22.2273L2780.06 22.483H2770.07V18.1364H2783.79V22.108C2783.79 25.0398 2783.16 27.5852 2781.91 29.7443C2780.68 31.892 2778.96 33.5511 2776.77 34.7216C2774.59 35.892 2772.09 36.4773 2769.27 36.4773C2766.11 36.4773 2763.34 35.75 2760.95 34.2955C2758.57 32.8409 2756.72 30.7784 2755.39 28.108C2754.06 25.4261 2753.4 22.2443 2753.4 18.5625C2753.4 15.7784 2753.78 13.2784 2754.56 11.0625C2755.33 8.84659 2756.41 6.96591 2757.81 5.42045C2759.22 3.86364 2760.88 2.67614 2762.77 1.85795C2764.68 1.02841 2766.77 0.613635 2769.03 0.613635C2770.91 0.613635 2772.67 0.892044 2774.3 1.44886C2775.93 2.00568 2777.39 2.79545 2778.66 3.81818C2779.94 4.84091 2781.01 6.05682 2781.85 7.46591C2782.69 8.86364 2783.26 10.4148 2783.55 12.1193H2778.15ZM2820.8 18.5455C2820.8 22.2727 2820.12 25.4773 2818.75 28.1591C2817.39 30.8295 2815.52 32.8864 2813.15 34.3295C2810.78 35.7614 2808.1 36.4773 2805.08 36.4773C2802.06 36.4773 2799.36 35.7614 2796.99 34.3295C2794.62 32.8864 2792.76 30.8239 2791.4 28.142C2790.03 25.4602 2789.35 22.2614 2789.35 18.5455C2789.35 14.8182 2790.03 11.6193 2791.4 8.94886C2792.76 6.26704 2794.62 4.21023 2796.99 2.77841C2799.36 1.33523 2802.06 0.613635 2805.08 0.613635C2808.1 0.613635 2810.78 1.33523 2813.15 2.77841C2815.52 4.21023 2817.39 6.26704 2818.75 8.94886C2820.12 11.6193 2820.8 14.8182 2820.8 18.5455ZM2815.58 18.5455C2815.58 15.7045 2815.12 13.3125 2814.2 11.3693C2813.29 9.41477 2812.04 7.9375 2810.45 6.9375C2808.87 5.92614 2807.08 5.42045 2805.08 5.42045C2803.07 5.42045 2801.28 5.92614 2799.7 6.9375C2798.12 7.9375 2796.87 9.41477 2795.95 11.3693C2795.04 13.3125 2794.58 15.7045 2794.58 18.5455C2794.58 21.3864 2795.04 23.7841 2795.95 25.7386C2796.87 27.6818 2798.12 29.1591 2799.7 30.1705C2801.28 31.1705 2803.07 31.6705 2805.08 31.6705C2807.08 31.6705 2808.87 31.1705 2810.45 30.1705C2812.04 29.1591 2813.29 27.6818 2814.2 25.7386C2815.12 23.7841 2815.58 21.3864 2815.58 18.5455ZM2828.58 36H2822.99L2835.55 1.09091H2841.64L2854.2 36H2848.61L2838.74 7.43182H2838.47L2828.58 36ZM2829.52 22.3295H2847.65V26.7614H2829.52V22.3295ZM2853.39 5.625V1.09091H2880.41V5.625H2869.52V36H2864.27V5.625H2853.39ZM2887.69 36.3239C2886.76 36.3239 2885.96 35.9943 2885.29 35.3352C2884.62 34.6648 2884.28 33.858 2884.28 32.9148C2884.28 31.983 2884.62 31.1875 2885.29 30.5284C2885.96 29.858 2886.76 29.5227 2887.69 29.5227C2888.62 29.5227 2889.42 29.858 2890.09 30.5284C2890.76 31.1875 2891.1 31.983 2891.1 32.9148C2891.1 33.5398 2890.94 34.1136 2890.62 34.6364C2890.32 35.1477 2889.91 35.5568 2889.39 35.8636C2888.88 36.1705 2888.32 36.3239 2887.69 36.3239ZM2897.58 1.09091V13.517H2893.35V1.09091H2897.58ZM2906.34 1.09091V13.517H2902.11V1.09091H2906.34ZM2970.16 16.3466V20.7614H2922.16V16.3466H2970.16ZM2986.69 36V1.09091H2999.14C3001.84 1.09091 3004.09 1.55682 3005.87 2.48864C3007.67 3.42045 3009.01 4.71023 3009.89 6.35795C3010.78 7.99432 3011.22 9.88636 3011.22 12.0341C3011.22 14.1705 3010.77 16.0511 3009.88 17.6761C3008.99 19.2898 3007.65 20.5455 3005.85 21.4432C3004.07 22.3409 3001.83 22.7898 2999.12 22.7898H2989.69V18.2557H2998.64C3000.35 18.2557 3001.73 18.0114 3002.8 17.5227C3003.88 17.0341 3004.67 16.3239 3005.17 15.392C3005.67 14.4602 3005.92 13.3409 3005.92 12.0341C3005.92 10.7159 3005.67 9.57386 3005.15 8.60795C3004.65 7.64204 3003.87 6.90341 3002.79 6.39205C3001.72 5.86932 3000.31 5.60795 2998.58 5.60795H2991.96V36H2986.69ZM3003.93 20.25L3012.55 36H3006.55L2998.1 20.25H3003.93ZM3017.63 36V1.09091H3030.08C3032.78 1.09091 3035.02 1.55682 3036.81 2.48864C3038.6 3.42045 3039.94 4.71023 3040.83 6.35795C3041.72 7.99432 3042.16 9.88636 3042.16 12.0341C3042.16 14.1705 3041.71 16.0511 3040.81 17.6761C3039.93 19.2898 3038.59 20.5455 3036.79 21.4432C3035.01 22.3409 3032.76 22.7898 3030.06 22.7898H3020.63V18.2557H3029.58C3031.29 18.2557 3032.67 18.0114 3033.74 17.5227C3034.82 17.0341 3035.61 16.3239 3036.11 15.392C3036.61 14.4602 3036.86 13.3409 3036.86 12.0341C3036.86 10.7159 3036.6 9.57386 3036.09 8.60795C3035.59 7.64204 3034.8 6.90341 3033.72 6.39205C3032.65 5.86932 3031.25 5.60795 3029.51 5.60795H3022.9V36H3017.63ZM3034.87 20.25L3043.49 36H3037.49L3029.04 20.25H3034.87ZM3072.19 12.1193C3071.87 11.0852 3071.42 10.1591 3070.87 9.34091C3070.32 8.51136 3069.67 7.80682 3068.9 7.22727C3068.14 6.63636 3067.27 6.1875 3066.3 5.88068C3065.33 5.57386 3064.27 5.42045 3063.11 5.42045C3061.14 5.42045 3059.37 5.92614 3057.79 6.9375C3056.21 7.94886 3054.96 9.43182 3054.04 11.3864C3053.13 13.3295 3052.68 15.7102 3052.68 18.5284C3052.68 21.358 3053.14 23.75 3054.06 25.7045C3054.98 27.6591 3056.24 29.142 3057.84 30.1534C3059.44 31.1648 3061.27 31.6705 3063.31 31.6705C3065.21 31.6705 3066.87 31.2841 3068.27 30.5114C3069.69 29.7386 3070.79 28.6477 3071.56 27.2386C3072.35 25.8182 3072.74 24.1477 3072.74 22.2273L3074.1 22.483H3064.12V18.1364H3077.84V22.108C3077.84 25.0398 3077.21 27.5852 3075.96 29.7443C3074.72 31.892 3073.01 33.5511 3070.81 34.7216C3068.63 35.892 3066.13 36.4773 3063.31 36.4773C3060.15 36.4773 3057.38 35.75 3055 34.2955C3052.62 32.8409 3050.77 30.7784 3049.44 28.108C3048.11 25.4261 3047.44 22.2443 3047.44 18.5625C3047.44 15.7784 3047.83 13.2784 3048.6 11.0625C3049.38 8.84659 3050.46 6.96591 3051.86 5.42045C3053.27 3.86364 3054.92 2.67614 3056.82 1.85795C3058.73 1.02841 3060.81 0.613635 3063.08 0.613635C3064.96 0.613635 3066.72 0.892044 3068.34 1.44886C3069.98 2.00568 3071.43 2.79545 3072.71 3.81818C3073.99 4.84091 3075.05 6.05682 3075.89 7.46591C3076.73 8.86364 3077.3 10.4148 3077.6 12.1193H3072.19ZM3114.85 18.5455C3114.85 22.2727 3114.16 25.4773 3112.8 28.1591C3111.44 30.8295 3109.57 32.8864 3107.19 34.3295C3104.83 35.7614 3102.14 36.4773 3099.13 36.4773C3096.11 36.4773 3093.41 35.7614 3091.03 34.3295C3088.67 32.8864 3086.81 30.8239 3085.44 28.142C3084.08 25.4602 3083.4 22.2614 3083.4 18.5455C3083.4 14.8182 3084.08 11.6193 3085.44 8.94886C3086.81 6.26704 3088.67 4.21023 3091.03 2.77841C3093.41 1.33523 3096.11 0.613635 3099.13 0.613635C3102.14 0.613635 3104.83 1.33523 3107.19 2.77841C3109.57 4.21023 3111.44 6.26704 3112.8 8.94886C3114.16 11.6193 3114.85 14.8182 3114.85 18.5455ZM3109.63 18.5455C3109.63 15.7045 3109.17 13.3125 3108.25 11.3693C3107.34 9.41477 3106.09 7.9375 3104.5 6.9375C3102.92 5.92614 3101.13 5.42045 3099.13 5.42045C3097.12 5.42045 3095.32 5.92614 3093.74 6.9375C3092.16 7.9375 3090.91 9.41477 3089.99 11.3693C3089.09 13.3125 3088.63 15.7045 3088.63 18.5455C3088.63 21.3864 3089.09 23.7841 3089.99 25.7386C3090.91 27.6818 3092.16 29.1591 3093.74 30.1705C3095.32 31.1705 3097.12 31.6705 3099.13 31.6705C3101.13 31.6705 3102.92 31.1705 3104.5 30.1705C3106.09 29.1591 3107.34 27.6818 3108.25 25.7386C3109.17 23.7841 3109.63 21.3864 3109.63 18.5455ZM3122.63 36H3117.04L3129.6 1.09091H3135.68L3148.25 36H3142.66L3132.79 7.43182H3132.51L3122.63 36ZM3123.57 22.3295H3141.7V26.7614H3123.57V22.3295ZM3147.44 5.625V1.09091H3174.46V5.625H3163.57V36H3158.32V5.625H3147.44ZM3177.74 1.09091H3183.72L3192.84 16.9602H3193.21L3202.33 1.09091H3208.32L3195.65 22.2955V36H3190.4V22.2955L3177.74 1.09091ZM3217.31 31.2273L3217.05 33.0852C3216.88 34.4489 3216.59 35.8693 3216.18 37.3466C3215.78 38.8352 3215.37 40.2159 3214.94 41.4886C3214.52 42.7614 3214.17 43.7727 3213.9 44.5227H3210.28C3210.43 43.8182 3210.64 42.8636 3210.9 41.6591C3211.16 40.4659 3211.41 39.1307 3211.66 37.6534C3211.91 36.1761 3212.1 34.6705 3212.23 33.1364L3212.4 31.2273H3217.31ZM3237.05 36V1.09091H3258.7V5.625H3242.32V16.2614H3257.15V20.7784H3242.32V36H3237.05ZM3295.5 18.5455C3295.5 22.2727 3294.82 25.4773 3293.46 28.1591C3292.09 30.8295 3290.22 32.8864 3287.85 34.3295C3285.49 35.7614 3282.8 36.4773 3279.79 36.4773C3276.76 36.4773 3274.07 35.7614 3271.69 34.3295C3269.33 32.8864 3267.46 30.8239 3266.1 28.142C3264.74 25.4602 3264.05 22.2614 3264.05 18.5455C3264.05 14.8182 3264.74 11.6193 3266.1 8.94886C3267.46 6.26704 3269.33 4.21023 3271.69 2.77841C3274.07 1.33523 3276.76 0.613635 3279.79 0.613635C3282.8 0.613635 3285.49 1.33523 3287.85 2.77841C3290.22 4.21023 3292.09 6.26704 3293.46 8.94886C3294.82 11.6193 3295.5 14.8182 3295.5 18.5455ZM3290.29 18.5455C3290.29 15.7045 3289.83 13.3125 3288.91 11.3693C3288 9.41477 3286.75 7.9375 3285.16 6.9375C3283.58 5.92614 3281.79 5.42045 3279.79 5.42045C3277.78 5.42045 3275.98 5.92614 3274.4 6.9375C3272.82 7.9375 3271.57 9.41477 3270.65 11.3693C3269.74 13.3125 3269.29 15.7045 3269.29 18.5455C3269.29 21.3864 3269.74 23.7841 3270.65 25.7386C3271.57 27.6818 3272.82 29.1591 3274.4 30.1705C3275.98 31.1705 3277.78 31.6705 3279.79 31.6705C3281.79 31.6705 3283.58 31.1705 3285.16 30.1705C3286.75 29.1591 3288 27.6818 3288.91 25.7386C3289.83 23.7841 3290.29 21.3864 3290.29 18.5455ZM3324.52 1.09091H3329.8V24.0511C3329.8 26.4943 3329.23 28.6591 3328.08 30.5455C3326.93 32.4205 3325.32 33.8977 3323.24 34.9773C3321.16 36.0455 3318.72 36.5795 3315.93 36.5795C3313.14 36.5795 3310.71 36.0455 3308.63 34.9773C3306.55 33.8977 3304.94 32.4205 3303.79 30.5455C3302.64 28.6591 3302.07 26.4943 3302.07 24.0511V1.09091H3307.34V23.625C3307.34 25.2045 3307.68 26.608 3308.38 27.8352C3309.08 29.0625 3310.08 30.0284 3311.36 30.733C3312.64 31.4261 3314.17 31.7727 3315.93 31.7727C3317.7 31.7727 3319.23 31.4261 3320.51 30.733C3321.81 30.0284 3322.8 29.0625 3323.48 27.8352C3324.17 26.608 3324.52 25.2045 3324.52 23.625V1.09091ZM3365.64 1.09091V36H3360.8L3343.05 10.3977H3342.73V36H3337.46V1.09091H3342.34L3360.1 26.7273H3360.42V1.09091H3365.64ZM3384.62 36H3373.32V1.09091H3384.98C3388.4 1.09091 3391.34 1.78977 3393.79 3.1875C3396.25 4.57386 3398.13 6.56818 3399.43 9.17045C3400.75 11.7614 3401.41 14.8693 3401.41 18.4943C3401.41 22.1307 3400.75 25.2557 3399.42 27.8693C3398.1 30.483 3396.19 32.4943 3393.69 33.9034C3391.19 35.3011 3388.17 36 3384.62 36ZM3378.59 31.3977H3384.33C3386.99 31.3977 3389.2 30.8977 3390.96 29.8977C3392.72 28.8864 3394.04 27.4261 3394.92 25.517C3395.79 23.5966 3396.23 21.2557 3396.23 18.4943C3396.23 15.7557 3395.79 13.4318 3394.92 11.5227C3394.05 9.61364 3392.76 8.16477 3391.05 7.17614C3389.33 6.1875 3387.2 5.69318 3384.65 5.69318H3378.59V31.3977ZM3407.96 36V1.09091H3429.85V5.625H3413.23V16.2614H3428.7V20.7784H3413.23V31.4659H3430.05V36H3407.96ZM3436.88 36V1.09091H3449.33C3452.03 1.09091 3454.27 1.55682 3456.06 2.48864C3457.85 3.42045 3459.19 4.71023 3460.08 6.35795C3460.97 7.99432 3461.41 9.88636 3461.41 12.0341C3461.41 14.1705 3460.96 16.0511 3460.06 17.6761C3459.18 19.2898 3457.84 20.5455 3456.04 21.4432C3454.26 22.3409 3452.01 22.7898 3449.31 22.7898H3439.88V18.2557H3448.83C3450.54 18.2557 3451.92 18.0114 3452.99 17.5227C3454.07 17.0341 3454.86 16.3239 3455.36 15.392C3455.86 14.4602 3456.11 13.3409 3456.11 12.0341C3456.11 10.7159 3455.85 9.57386 3455.34 8.60795C3454.84 7.64204 3454.05 6.90341 3452.97 6.39205C3451.9 5.86932 3450.5 5.60795 3448.76 5.60795H3442.15V36H3436.88ZM3454.12 20.25L3462.74 36H3456.74L3448.29 20.25H3454.12ZM3510.85 18.5455C3510.85 22.2727 3510.16 25.4773 3508.8 28.1591C3507.44 30.8295 3505.57 32.8864 3503.19 34.3295C3500.83 35.7614 3498.14 36.4773 3495.13 36.4773C3492.11 36.4773 3489.41 35.7614 3487.03 34.3295C3484.67 32.8864 3482.81 30.8239 3481.44 28.142C3480.08 25.4602 3479.4 22.2614 3479.4 18.5455C3479.4 14.8182 3480.08 11.6193 3481.44 8.94886C3482.81 6.26704 3484.67 4.21023 3487.03 2.77841C3489.41 1.33523 3492.11 0.613635 3495.13 0.613635C3498.14 0.613635 3500.83 1.33523 3503.19 2.77841C3505.57 4.21023 3507.44 6.26704 3508.8 8.94886C3510.16 11.6193 3510.85 14.8182 3510.85 18.5455ZM3505.63 18.5455C3505.63 15.7045 3505.17 13.3125 3504.25 11.3693C3503.34 9.41477 3502.09 7.9375 3500.5 6.9375C3498.92 5.92614 3497.13 5.42045 3495.13 5.42045C3493.12 5.42045 3491.32 5.92614 3489.74 6.9375C3488.16 7.9375 3486.91 9.41477 3485.99 11.3693C3485.09 13.3125 3484.63 15.7045 3484.63 18.5455C3484.63 21.3864 3485.09 23.7841 3485.99 25.7386C3486.91 27.6818 3488.16 29.1591 3489.74 30.1705C3491.32 31.1705 3493.12 31.6705 3495.13 31.6705C3497.13 31.6705 3498.92 31.1705 3500.5 30.1705C3502.09 29.1591 3503.34 27.6818 3504.25 25.7386C3505.17 23.7841 3505.63 21.3864 3505.63 18.5455ZM3517.41 36V1.09091H3539.06V5.625H3522.68V16.2614H3537.51V20.7784H3522.68V36H3517.41ZM3558.24 1.09091H3564.63L3575.75 28.2273H3576.16L3587.27 1.09091H3593.66V36H3588.65V10.7386H3588.33L3578.03 35.9489H3573.87L3563.58 10.7216H3563.25V36H3558.24V1.09091ZM3604.27 36H3598.68L3611.24 1.09091H3617.33L3629.89 36H3624.3L3614.43 7.43182H3614.15L3604.27 36ZM3605.21 22.3295H3623.34V26.7614H3605.21V22.3295ZM3653.69 10.2614C3653.51 8.64773 3652.76 7.39773 3651.44 6.51136C3650.12 5.61364 3648.46 5.16477 3646.46 5.16477C3645.03 5.16477 3643.79 5.39205 3642.74 5.84659C3641.7 6.28977 3640.89 6.90341 3640.31 7.6875C3639.74 8.46023 3639.45 9.34091 3639.45 10.3295C3639.45 11.1591 3639.65 11.875 3640.03 12.4773C3640.43 13.0795 3640.95 13.5852 3641.59 13.9943C3642.23 14.392 3642.93 14.7273 3643.66 15C3644.4 15.2614 3645.11 15.4773 3645.8 15.6477L3649.2 16.5341C3650.32 16.8068 3651.46 17.1761 3652.63 17.642C3653.8 18.108 3654.89 18.7216 3655.89 19.483C3656.89 20.2443 3657.69 21.1875 3658.31 22.3125C3658.93 23.4375 3659.24 24.7841 3659.24 26.3523C3659.24 28.3295 3658.73 30.0852 3657.71 31.6193C3656.7 33.1534 3655.23 34.3636 3653.3 35.25C3651.38 36.1364 3649.05 36.5795 3646.32 36.5795C3643.71 36.5795 3641.45 36.1648 3639.54 35.3352C3637.63 34.5057 3636.14 33.3295 3635.06 31.8068C3633.98 30.2727 3633.38 28.4545 3633.27 26.3523H3638.55C3638.65 27.6136 3639.06 28.6648 3639.78 29.5057C3640.51 30.3352 3641.43 30.9545 3642.56 31.3636C3643.69 31.7614 3644.94 31.9602 3646.29 31.9602C3647.78 31.9602 3649.1 31.7273 3650.26 31.2614C3651.43 30.7841 3652.35 30.125 3653.02 29.2841C3653.69 28.4318 3654.03 27.4375 3654.03 26.3011C3654.03 25.267 3653.73 24.4205 3653.14 23.7614C3652.56 23.1023 3651.77 22.5568 3650.77 22.125C3649.78 21.6932 3648.66 21.3125 3647.41 20.983L3643.29 19.858C3640.49 19.0966 3638.28 17.9773 3636.64 16.5C3635.02 15.0227 3634.2 13.0682 3634.2 10.6364C3634.2 8.625 3634.75 6.86932 3635.84 5.36932C3636.93 3.86932 3638.41 2.70454 3640.27 1.875C3642.14 1.03409 3644.24 0.613635 3646.58 0.613635C3648.94 0.613635 3651.03 1.02841 3652.84 1.85795C3654.65 2.6875 3656.09 3.82955 3657.13 5.28409C3658.18 6.72727 3658.72 8.38636 3658.77 10.2614H3653.69ZM3665.54 36V1.09091H3670.81V17.7614H3671.23L3685.87 1.09091H3692.5L3678.42 16.8068L3692.56 36H3686.21L3674.93 20.4034L3670.81 25.142V36H3665.54ZM3697.41 36V1.09091H3719.3V5.625H3702.68V16.2614H3718.16V20.7784H3702.68V31.4659H3719.5V36H3697.41ZM3737.64 36H3726.34V1.09091H3737.99C3741.41 1.09091 3744.35 1.78977 3746.81 3.1875C3749.26 4.57386 3751.14 6.56818 3752.45 9.17045C3753.77 11.7614 3754.43 14.8693 3754.43 18.4943C3754.43 22.1307 3753.76 25.2557 3752.43 27.8693C3751.11 30.483 3749.2 32.4943 3746.7 33.9034C3744.2 35.3011 3741.18 36 3737.64 36ZM3731.6 31.3977H3737.35C3740.01 31.3977 3742.22 30.8977 3743.98 29.8977C3745.74 28.8864 3747.06 27.4261 3747.93 25.517C3748.81 23.5966 3749.24 21.2557 3749.24 18.4943C3749.24 15.7557 3748.81 13.4318 3747.93 11.5227C3747.07 9.61364 3745.78 8.16477 3744.06 7.17614C3742.35 6.1875 3740.22 5.69318 3737.67 5.69318H3731.6V31.3977ZM3784.6 12.1193C3784.27 11.0852 3783.83 10.1591 3783.27 9.34091C3782.73 8.51136 3782.07 7.80682 3781.31 7.22727C3780.55 6.63636 3779.68 6.1875 3778.7 5.88068C3777.74 5.57386 3776.67 5.42045 3775.52 5.42045C3773.55 5.42045 3771.78 5.92614 3770.2 6.9375C3768.62 7.94886 3767.37 9.43182 3766.45 11.3864C3765.54 13.3295 3765.08 15.7102 3765.08 18.5284C3765.08 21.358 3765.54 23.75 3766.46 25.7045C3767.38 27.6591 3768.65 29.142 3770.25 30.1534C3771.85 31.1648 3773.67 31.6705 3775.72 31.6705C3777.62 31.6705 3779.27 31.2841 3780.68 30.5114C3782.1 29.7386 3783.2 28.6477 3783.97 27.2386C3784.75 25.8182 3785.15 24.1477 3785.15 22.2273L3786.51 22.483H3776.52V18.1364H3790.24V22.108C3790.24 25.0398 3789.62 27.5852 3788.37 29.7443C3787.13 31.892 3785.41 33.5511 3783.22 34.7216C3781.04 35.892 3778.54 36.4773 3775.72 36.4773C3772.56 36.4773 3769.79 35.75 3767.4 34.2955C3765.03 32.8409 3763.17 30.7784 3761.85 28.108C3760.52 25.4261 3759.85 22.2443 3759.85 18.5625C3759.85 15.7784 3760.24 13.2784 3761.01 11.0625C3761.78 8.84659 3762.87 6.96591 3764.27 5.42045C3765.67 3.86364 3767.33 2.67614 3769.23 1.85795C3771.13 1.02841 3773.22 0.613635 3775.48 0.613635C3777.37 0.613635 3779.12 0.892044 3780.75 1.44886C3782.38 2.00568 3783.84 2.79545 3785.11 3.81818C3786.4 4.84091 3787.46 6.05682 3788.3 7.46591C3789.14 8.86364 3789.71 10.4148 3790 12.1193H3784.6ZM3819.38 1.09091H3824.66V24.0511C3824.66 26.4943 3824.09 28.6591 3822.94 30.5455C3821.79 32.4205 3820.18 33.8977 3818.1 34.9773C3816.02 36.0455 3813.58 36.5795 3810.79 36.5795C3808 36.5795 3805.57 36.0455 3803.49 34.9773C3801.41 33.8977 3799.8 32.4205 3798.65 30.5455C3797.5 28.6591 3796.93 26.4943 3796.93 24.0511V1.09091H3802.2V23.625C3802.2 25.2045 3802.54 26.608 3803.24 27.8352C3803.94 29.0625 3804.93 30.0284 3806.22 30.733C3807.5 31.4261 3809.03 31.7727 3810.79 31.7727C3812.56 31.7727 3814.09 31.4261 3815.37 30.733C3816.67 30.0284 3817.66 29.0625 3818.34 27.8352C3819.03 26.608 3819.38 25.2045 3819.38 23.625V1.09091ZM3829.63 1.09091H3835.61L3844.73 16.9602H3845.1L3854.22 1.09091H3860.21L3847.54 22.2955V36H3842.29V22.2955L3829.63 1.09091ZM3884.22 10.2614C3884.04 8.64773 3883.29 7.39773 3881.97 6.51136C3880.65 5.61364 3878.99 5.16477 3876.99 5.16477C3875.56 5.16477 3874.32 5.39205 3873.28 5.84659C3872.23 6.28977 3871.42 6.90341 3870.84 7.6875C3870.27 8.46023 3869.99 9.34091 3869.99 10.3295C3869.99 11.1591 3870.18 11.875 3870.57 12.4773C3870.96 13.0795 3871.48 13.5852 3872.12 13.9943C3872.76 14.392 3873.46 14.7273 3874.2 15C3874.93 15.2614 3875.64 15.4773 3876.33 15.6477L3879.74 16.5341C3880.85 16.8068 3881.99 17.1761 3883.16 17.642C3884.33 18.108 3885.42 18.7216 3886.42 19.483C3887.42 20.2443 3888.22 21.1875 3888.84 22.3125C3889.46 23.4375 3889.78 24.7841 3889.78 26.3523C3889.78 28.3295 3889.26 30.0852 3888.24 31.6193C3887.23 33.1534 3885.76 34.3636 3883.83 35.25C3881.91 36.1364 3879.58 36.5795 3876.86 36.5795C3874.24 36.5795 3871.98 36.1648 3870.07 35.3352C3868.16 34.5057 3866.67 33.3295 3865.59 31.8068C3864.51 30.2727 3863.91 28.4545 3863.8 26.3523H3869.08C3869.18 27.6136 3869.59 28.6648 3870.31 29.5057C3871.04 30.3352 3871.96 30.9545 3873.09 31.3636C3874.22 31.7614 3875.47 31.9602 3876.82 31.9602C3878.31 31.9602 3879.63 31.7273 3880.79 31.2614C3881.96 30.7841 3882.88 30.125 3883.55 29.2841C3884.22 28.4318 3884.56 27.4375 3884.56 26.3011C3884.56 25.267 3884.26 24.4205 3883.67 23.7614C3883.09 23.1023 3882.3 22.5568 3881.3 22.125C3880.32 21.6932 3879.2 21.3125 3877.95 20.983L3873.82 19.858C3871.03 19.0966 3868.81 17.9773 3867.17 16.5C3865.55 15.0227 3864.74 13.0682 3864.74 10.6364C3864.74 8.625 3865.28 6.86932 3866.37 5.36932C3867.46 3.86932 3868.94 2.70454 3870.8 1.875C3872.67 1.03409 3874.77 0.613635 3877.11 0.613635C3879.47 0.613635 3881.56 1.02841 3883.37 1.85795C3885.18 2.6875 3886.62 3.82955 3887.66 5.28409C3888.71 6.72727 3889.25 8.38636 3889.3 10.2614H3884.22ZM3924.25 1.09091V36H3919.4L3901.66 10.3977H3901.34V36H3896.07V1.09091H3900.94L3918.71 26.7273H3919.03V1.09091H3924.25ZM3931.93 36V1.09091H3953.58V5.625H3937.2V16.2614H3952.03V20.7784H3937.2V36H3931.93ZM3958.33 5.625V1.09091H3985.35V5.625H3974.46V36H3969.21V5.625H3958.33ZM3992.63 36.3239C3991.7 36.3239 3990.89 35.9943 3990.22 35.3352C3989.55 34.6648 3989.22 33.858 3989.22 32.9148C3989.22 31.983 3989.55 31.1875 3990.22 30.5284C3990.89 29.858 3991.7 29.5227 3992.63 29.5227C3993.56 29.5227 3994.36 29.858 3995.03 30.5284C3995.7 31.1875 3996.04 31.983 3996.04 32.9148C3996.04 33.5398 3995.88 34.1136 3995.56 34.6364C3995.25 35.1477 3994.84 35.5568 3994.33 35.8636C3993.82 36.1705 3993.25 36.3239 3992.63 36.3239Z"/>
</svg>
