<?xml version="1.0" encoding="utf-8"?>
<!-- Generator: Adobe Illustrator 24.0.0, SVG Export Plug-In . SVG Version: 6.00 Build 0)  -->
<svg version="1.1" id="Layer_2" xmlns="http://www.w3.org/2000/svg" xmlns:xlink="http://www.w3.org/1999/xlink" x="0px" y="0px"
	 viewBox="0 0 591.1 591.1" style="enable-background:new 0 0 591.1 591.1;" xml:space="preserve">
<style type="text/css">
	.st0{fill:#333333;}
	.st1{fill:#1A1A1A;}
</style>
<g>
	<g>
		<path class="st0" d="M573.4,466.5H17.7c-9.8,0-17.7-7.9-17.7-17.7v0c0-9.8,7.9-17.7,17.7-17.7h555.7c9.8,0,17.7,7.9,17.7,17.7v0
			C591.1,458.6,583.2,466.5,573.4,466.5z"/>
	</g>
	<g>
		<path class="st1" d="M56.7,142.3v271c0,9.8,7.9,17.7,17.7,17.7h442.2c9.8,0,17.7-7.9,17.7-17.7v-271c0-9.8-7.9-17.7-17.7-17.7
			H74.4C64.7,124.6,56.7,132.5,56.7,142.3z M496.7,414.8H94.4c-9.8,0-17.7-7.7-17.7-17.3V158.1c0-9.5,7.9-17.3,17.7-17.3h402.3
			c9.8,0,17.7,7.7,17.7,17.3v239.4C514.4,407.1,506.5,414.8,496.7,414.8z"/>
	</g>
	<g>
		<path class="st1" d="M361.2,344.3H229.9c-4.7,0-8.6-3.8-8.6-8.6s3.8-8.6,8.6-8.6h131.2c4.7,0,8.6,3.8,8.6,8.6
			S365.9,344.3,361.2,344.3z"/>
	</g>
	<g>
		<g>
			<path class="st1" d="M206.3,287.5c-2.2,0-4.4-0.8-6.1-2.5c-3.4-3.4-3.4-8.8,0-12.1l39.3-39.3c3.4-3.4,8.8-3.4,12.1,0
				c3.4,3.4,3.4,8.8,0,12.1L212.3,285C210.7,286.7,208.5,287.5,206.3,287.5z"/>
		</g>
		<g>
			<path class="st1" d="M245.6,287.5c-2.2,0-4.4-0.8-6.1-2.5l-39.3-39.3c-3.4-3.4-3.4-8.8,0-12.1c3.4-3.4,8.8-3.4,12.1,0l39.3,39.3
				c3.4,3.4,3.4,8.8,0,12.1C250,286.7,247.8,287.5,245.6,287.5z"/>
		</g>
		<g>
			<path class="st1" d="M345.5,287.5c-2.2,0-4.4-0.8-6.1-2.5c-3.4-3.4-3.4-8.8,0-12.1l39.3-39.3c3.4-3.4,8.8-3.4,12.1,0
				c3.4,3.4,3.4,8.8,0,12.1L351.6,285C349.9,286.7,347.7,287.5,345.5,287.5z"/>
		</g>
		<g>
			<path class="st1" d="M384.8,287.5c-2.2,0-4.4-0.8-6.1-2.5l-39.3-39.3c-3.4-3.4-3.4-8.8,0-12.1c3.4-3.4,8.8-3.4,12.1,0l39.3,39.3
				c3.4,3.4,3.4,8.8,0,12.1C389.2,286.7,387,287.5,384.8,287.5z"/>
		</g>
	</g>
</g>
</svg>
